<svg xmlns="http://www.w3.org/2000/svg" xmlns:xlink="http://www.w3.org/1999/xlink" width="500" zoomAndPan="magnify" viewBox="0 0 375 374.999991" height="500" preserveAspectRatio="xMidYMid meet" version="1.0"><defs><g/><clipPath id="878c342bb4"><path d="M 147.011719 256.261719 L 240 256.261719 L 240 349.261719 L 147.011719 349.261719 Z M 147.011719 256.261719 " clip-rule="nonzero"/></clipPath><clipPath id="ddcb615f52"><path d="M 151.789062 280.730469 L 235.039062 280.730469 L 235.039062 330.980469 L 151.789062 330.980469 Z M 151.789062 280.730469 " clip-rule="nonzero"/></clipPath><clipPath id="811424606a"><path d="M 167.449219 279.433594 L 184 279.433594 L 184 296 L 167.449219 296 Z M 167.449219 279.433594 " clip-rule="nonzero"/></clipPath><clipPath id="0ed78c05b0"><path d="M 193 309 L 210 309 L 210 325.933594 L 193 325.933594 Z M 193 309 " clip-rule="nonzero"/></clipPath><clipPath id="0948f1c65d"><path d="M 176 282 L 219.199219 282 L 219.199219 325.933594 L 176 325.933594 Z M 176 282 " clip-rule="nonzero"/></clipPath></defs><rect x="-37.5" width="450" fill="#ffffff" y="-37.499999" height="449.999989" fill-opacity="1"/><rect x="-37.5" width="450" fill="#ffffff" y="-37.499999" height="449.999989" fill-opacity="1"/><g clip-path="url(#878c342bb4)"><path fill="#0e284b" d="M 237.054688 315.109375 C 235.875 319.121094 234.078125 322.925781 231.84375 326.429688 C 230.003906 329.28125 227.90625 331.960938 225.554688 334.398438 C 225.25 334.730469 224.910156 335.03125 224.585938 335.34375 C 224.257812 335.652344 223.9375 335.972656 223.601562 336.273438 L 222.582031 337.160156 L 222.070312 337.605469 L 221.542969 338.027344 L 220.484375 338.871094 C 220.125 339.144531 219.757812 339.402344 219.394531 339.671875 C 218.675781 340.21875 217.914062 340.703125 217.167969 341.210938 C 217.058594 341.28125 216.945312 341.359375 216.828125 341.4375 C 216.707031 341.511719 216.582031 341.585938 216.449219 341.664062 C 216.1875 341.824219 215.902344 341.992188 215.601562 342.171875 C 215.003906 342.546875 214.296875 342.902344 213.535156 343.304688 C 213.34375 343.40625 213.152344 343.511719 212.949219 343.609375 C 212.746094 343.703125 212.539062 343.800781 212.328125 343.898438 C 211.902344 344.09375 211.464844 344.296875 211.011719 344.507812 C 210.082031 344.871094 209.113281 345.304688 208.058594 345.644531 C 203.890625 347.15625 198.691406 348.089844 193.46875 348.109375 C 188.25 348.089844 183.046875 347.15625 178.878906 345.644531 C 177.824219 345.304688 176.855469 344.871094 175.929688 344.507812 C 175.476562 344.296875 175.035156 344.09375 174.613281 343.898438 C 174.402344 343.800781 174.191406 343.703125 173.988281 343.609375 C 173.789062 343.511719 173.59375 343.40625 173.402344 343.304688 C 172.640625 342.902344 171.933594 342.546875 171.339844 342.171875 C 171.039062 341.992188 170.753906 341.824219 170.492188 341.664062 C 170.359375 341.585938 170.230469 341.511719 170.109375 341.4375 C 169.992188 341.359375 169.878906 341.28125 169.773438 341.210938 C 166.9375 339.351562 164.273438 337.242188 161.851562 334.871094 C 159.296875 332.316406 157.0625 329.460938 155.09375 326.429688 C 152.863281 322.925781 151.0625 319.121094 149.886719 315.109375 C 148.660156 311.113281 148.089844 306.917969 148.054688 302.722656 C 148.089844 298.527344 148.660156 294.332031 149.886719 290.335938 C 151.0625 286.324219 152.863281 282.519531 155.09375 279.015625 C 156.9375 276.164062 159.03125 273.484375 161.386719 271.042969 C 161.691406 270.710938 162.03125 270.414062 162.355469 270.097656 C 162.683594 269.789062 163 269.472656 163.335938 269.171875 L 164.359375 268.28125 L 164.867188 267.839844 L 165.398438 267.417969 L 166.453125 266.574219 C 166.8125 266.300781 167.183594 266.042969 167.542969 265.773438 C 168.261719 265.222656 169.023438 264.742188 169.769531 264.234375 C 169.878906 264.160156 169.992188 264.085938 170.109375 264.007812 C 170.230469 263.933594 170.359375 263.855469 170.488281 263.777344 C 170.753906 263.621094 171.035156 263.449219 171.339844 263.269531 C 171.933594 262.894531 172.640625 262.542969 173.402344 262.136719 C 173.59375 262.039062 173.785156 261.929688 173.988281 261.835938 C 174.191406 261.738281 174.402344 261.644531 174.613281 261.542969 C 175.035156 261.347656 175.476562 261.144531 175.929688 260.9375 C 176.855469 260.574219 177.824219 260.136719 178.878906 259.800781 C 183.046875 258.289062 188.25 257.355469 193.46875 257.332031 C 198.6875 257.355469 203.890625 258.289062 208.058594 259.800781 C 209.113281 260.136719 210.082031 260.574219 211.011719 260.9375 C 211.464844 261.144531 211.902344 261.347656 212.324219 261.542969 C 212.539062 261.644531 212.746094 261.738281 212.949219 261.832031 C 213.152344 261.929688 213.34375 262.039062 213.535156 262.136719 C 214.296875 262.542969 215.003906 262.894531 215.601562 263.269531 C 215.902344 263.449219 216.183594 263.621094 216.449219 263.777344 C 216.582031 263.855469 216.707031 263.933594 216.828125 264.007812 C 216.945312 264.085938 217.058594 264.160156 217.167969 264.234375 C 220.003906 266.09375 222.667969 268.203125 225.089844 270.574219 C 227.644531 273.125 229.875 275.984375 231.84375 279.015625 C 234.078125 282.519531 235.875 286.324219 237.054688 290.335938 C 238.28125 294.332031 238.847656 298.527344 238.882812 302.722656 C 238.847656 306.917969 238.28125 311.113281 237.054688 315.109375 Z M 239.929688 302.691406 L 239.925781 302.6875 C 239.890625 298.402344 239.3125 294.117188 238.066406 290.03125 C 236.863281 285.929688 235.027344 282.039062 232.734375 278.464844 L 231.632812 276.808594 C 231.632812 276.808594 231.3125 276.363281 230.835938 275.695312 C 230.378906 275.015625 229.671875 274.175781 229 273.308594 C 228.277344 272.488281 227.582031 271.644531 227 271.066406 C 226.429688 270.472656 226.054688 270.078125 226.054688 270.078125 C 226.054688 270.078125 225.957031 269.980469 225.785156 269.816406 C 225.613281 269.648438 225.367188 269.410156 225.070312 269.125 C 224.496094 268.539062 223.660156 267.832031 222.839844 267.109375 C 222.421875 266.761719 221.988281 266.425781 221.589844 266.101562 C 221.386719 265.945312 221.195312 265.789062 221.011719 265.644531 C 220.820312 265.503906 220.640625 265.375 220.472656 265.253906 C 219.808594 264.777344 219.363281 264.457031 219.363281 264.457031 C 219.363281 264.457031 219.265625 264.378906 219.109375 264.277344 C 218.957031 264.171875 218.75 264.035156 218.542969 263.894531 C 218.132812 263.621094 217.71875 263.34375 217.71875 263.34375 C 217.609375 263.269531 217.492188 263.191406 217.371094 263.109375 C 217.25 263.035156 217.117188 262.957031 216.984375 262.875 C 216.714844 262.714844 216.425781 262.539062 216.117188 262.355469 C 215.507812 261.96875 214.785156 261.605469 214.007812 261.191406 C 213.808594 261.089844 213.613281 260.980469 213.40625 260.878906 C 213.199219 260.78125 212.984375 260.683594 212.769531 260.582031 C 212.335938 260.382812 211.886719 260.175781 211.421875 259.960938 C 210.472656 259.585938 209.484375 259.140625 208.402344 258.792969 C 204.136719 257.242188 198.8125 256.285156 193.46875 256.261719 C 188.128906 256.285156 182.800781 257.242188 178.535156 258.792969 C 177.457031 259.140625 176.464844 259.585938 175.515625 259.960938 C 175.050781 260.175781 174.605469 260.382812 174.171875 260.582031 C 173.953125 260.683594 173.742188 260.78125 173.53125 260.878906 C 173.324219 260.980469 173.128906 261.089844 172.933594 261.191406 C 172.152344 261.605469 171.433594 261.96875 170.820312 262.355469 C 170.515625 262.539062 170.222656 262.714844 169.953125 262.875 C 169.820312 262.957031 169.691406 263.035156 169.566406 263.109375 C 169.445312 263.191406 169.332031 263.269531 169.21875 263.34375 C 169.21875 263.34375 168.808594 263.621094 168.394531 263.894531 C 168.1875 264.035156 167.984375 264.171875 167.828125 264.277344 C 167.671875 264.378906 167.574219 264.457031 167.574219 264.457031 C 167.574219 264.457031 167.132812 264.777344 166.464844 265.253906 C 166.300781 265.375 166.121094 265.503906 165.929688 265.644531 C 165.746094 265.789062 165.550781 265.945312 165.351562 266.101562 C 164.949219 266.425781 164.519531 266.761719 164.097656 267.109375 C 163.277344 267.832031 162.441406 268.539062 161.867188 269.125 C 161.570312 269.410156 161.328125 269.648438 161.15625 269.816406 C 160.980469 269.980469 160.886719 270.078125 160.886719 270.078125 C 160.886719 270.078125 160.507812 270.472656 159.941406 271.066406 C 159.355469 271.644531 158.660156 272.488281 157.9375 273.308594 C 157.265625 274.175781 156.5625 275.015625 156.101562 275.695312 C 155.625 276.363281 155.304688 276.808594 155.304688 276.808594 L 154.203125 278.464844 C 151.914062 282.039062 150.074219 285.929688 148.875 290.03125 C 147.625 294.117188 147.050781 298.402344 147.011719 302.6875 L 147.011719 302.757812 C 147.050781 307.039062 147.625 311.328125 148.875 315.414062 C 150.074219 319.511719 151.914062 323.40625 154.203125 326.980469 L 155.304688 328.632812 C 155.304688 328.632812 155.625 329.082031 156.101562 329.746094 C 156.5625 330.429688 157.265625 331.269531 157.9375 332.132812 C 158.660156 332.953125 159.355469 333.800781 159.941406 334.378906 C 160.507812 334.96875 160.886719 335.367188 160.886719 335.367188 C 160.886719 335.367188 160.980469 335.464844 161.15625 335.628906 C 161.328125 335.792969 161.570312 336.03125 161.867188 336.316406 C 162.441406 336.902344 163.277344 337.609375 164.097656 338.335938 C 164.519531 338.683594 164.949219 339.019531 165.351562 339.339844 C 165.550781 339.5 165.746094 339.652344 165.929688 339.800781 C 166.121094 339.9375 166.300781 340.066406 166.464844 340.1875 C 167.132812 340.667969 167.574219 340.988281 167.574219 340.988281 C 167.574219 340.988281 167.671875 341.066406 167.828125 341.167969 C 167.984375 341.269531 168.1875 341.410156 168.394531 341.546875 C 168.808594 341.824219 169.222656 342.101562 169.222656 342.101562 C 169.332031 342.175781 169.445312 342.253906 169.566406 342.332031 C 169.691406 342.410156 169.820312 342.488281 169.953125 342.570312 C 170.222656 342.730469 170.515625 342.90625 170.824219 343.089844 C 171.433594 343.472656 172.152344 343.835938 172.933594 344.253906 C 173.128906 344.355469 173.324219 344.464844 173.53125 344.5625 C 173.742188 344.660156 173.953125 344.761719 174.171875 344.859375 C 174.605469 345.0625 175.054688 345.269531 175.515625 345.484375 C 176.464844 345.859375 177.457031 346.304688 178.535156 346.652344 C 182.800781 348.199219 188.128906 349.160156 193.46875 349.179688 C 198.8125 349.160156 204.136719 348.199219 208.402344 346.652344 C 209.484375 346.304688 210.472656 345.859375 211.421875 345.484375 C 211.886719 345.269531 212.335938 345.0625 212.769531 344.859375 C 212.984375 344.761719 213.199219 344.660156 213.40625 344.5625 C 213.613281 344.464844 213.808594 344.355469 214.007812 344.253906 C 214.785156 343.835938 215.507812 343.472656 216.117188 343.089844 C 216.425781 342.90625 216.714844 342.730469 216.984375 342.570312 C 217.117188 342.488281 217.25 342.410156 217.371094 342.332031 C 217.492188 342.253906 217.609375 342.175781 217.71875 342.101562 C 217.71875 342.101562 218.132812 341.824219 218.542969 341.546875 C 218.75 341.410156 218.957031 341.269531 219.109375 341.167969 C 219.265625 341.066406 219.363281 340.988281 219.363281 340.988281 C 219.363281 340.988281 219.808594 340.667969 220.472656 340.1875 C 220.640625 340.066406 220.820312 339.9375 221.011719 339.800781 C 221.195312 339.652344 221.386719 339.5 221.589844 339.339844 C 221.988281 339.019531 222.421875 338.683594 222.839844 338.335938 C 223.660156 337.609375 224.496094 336.902344 225.070312 336.316406 C 225.367188 336.03125 225.613281 335.792969 225.785156 335.628906 C 225.957031 335.464844 226.054688 335.367188 226.054688 335.367188 C 226.054688 335.367188 226.429688 334.96875 227 334.378906 C 227.582031 333.800781 228.277344 332.953125 229 332.132812 C 229.671875 331.269531 230.378906 330.429688 230.835938 329.746094 C 231.316406 329.078125 231.632812 328.632812 231.632812 328.632812 L 232.734375 326.980469 C 235.027344 323.40625 236.863281 319.511719 238.066406 315.414062 C 239.3125 311.328125 239.890625 307.039062 239.925781 302.757812 L 239.929688 302.753906 L 239.929688 302.691406 " fill-opacity="1" fill-rule="nonzero"/></g><g clip-path="url(#ddcb615f52)"><path fill="#0e284b" d="M 232.566406 313.832031 C 231.507812 317.429688 229.894531 320.84375 227.894531 323.988281 C 226.242188 326.542969 224.359375 328.949219 222.25 331.136719 C 221.976562 331.433594 221.671875 331.703125 221.378906 331.984375 C 221.085938 332.261719 220.800781 332.546875 220.496094 332.816406 L 219.125 334.011719 L 218.648438 334.390625 L 217.703125 335.148438 C 217.378906 335.394531 217.046875 335.625 216.722656 335.867188 C 216.082031 336.359375 215.394531 336.789062 214.726562 337.246094 C 214.628906 337.3125 214.527344 337.378906 214.421875 337.449219 C 214.3125 337.515625 214.199219 337.582031 214.082031 337.65625 C 213.84375 337.796875 213.589844 337.949219 213.320312 338.109375 C 212.785156 338.445312 212.152344 338.761719 211.46875 339.125 C 211.296875 339.214844 211.125 339.3125 210.941406 339.398438 C 210.757812 339.484375 210.574219 339.570312 210.382812 339.660156 C 210.003906 339.835938 209.609375 340.015625 209.203125 340.203125 C 208.371094 340.53125 207.5 340.921875 206.554688 341.222656 C 202.816406 342.578125 198.148438 343.417969 193.464844 343.4375 C 188.785156 343.417969 184.117188 342.578125 180.378906 341.222656 C 179.429688 340.921875 178.5625 340.53125 177.730469 340.203125 C 177.324219 340.015625 176.929688 339.835938 176.550781 339.660156 C 176.359375 339.570312 176.175781 339.484375 175.992188 339.398438 C 175.808594 339.3125 175.636719 339.214844 175.464844 339.125 C 174.78125 338.761719 174.148438 338.445312 173.613281 338.109375 C 173.34375 337.949219 173.089844 337.796875 172.851562 337.65625 C 172.734375 337.585938 172.621094 337.515625 172.511719 337.449219 C 172.40625 337.378906 172.304688 337.3125 172.207031 337.246094 C 169.664062 335.578125 167.273438 333.683594 165.101562 331.558594 C 162.808594 329.269531 160.808594 326.707031 159.039062 323.988281 C 157.039062 320.84375 155.425781 317.429688 154.367188 313.832031 C 153.265625 310.246094 152.757812 306.484375 152.726562 302.71875 C 152.757812 298.957031 153.265625 295.191406 154.367188 291.605469 C 155.425781 288.007812 157.039062 284.59375 159.039062 281.453125 C 160.691406 278.894531 162.574219 276.488281 164.683594 274.300781 C 164.957031 274.003906 165.261719 273.734375 165.554688 273.453125 C 165.847656 273.175781 166.132812 272.890625 166.433594 272.621094 L 167.351562 271.824219 L 167.808594 271.425781 L 168.285156 271.046875 L 169.230469 270.289062 C 169.554688 270.046875 169.882812 269.8125 170.210938 269.574219 C 170.851562 269.082031 171.539062 268.648438 172.207031 268.191406 C 172.304688 268.125 172.40625 268.058594 172.511719 267.988281 C 172.621094 267.921875 172.734375 267.855469 172.851562 267.78125 C 173.089844 267.640625 173.34375 267.488281 173.613281 267.328125 C 174.148438 266.992188 174.78125 266.675781 175.464844 266.3125 C 175.636719 266.222656 175.808594 266.125 175.992188 266.039062 C 176.175781 265.953125 176.359375 265.867188 176.550781 265.78125 C 176.929688 265.605469 177.324219 265.421875 177.730469 265.234375 C 178.5625 264.910156 179.429688 264.519531 180.378906 264.214844 C 184.117188 262.859375 188.785156 262.019531 193.464844 262 C 198.148438 262.019531 202.816406 262.859375 206.554688 264.214844 C 207.5 264.519531 208.371094 264.910156 209.203125 265.234375 C 209.609375 265.421875 210.003906 265.605469 210.382812 265.78125 C 210.574219 265.867188 210.757812 265.953125 210.941406 266.039062 C 211.125 266.125 211.296875 266.222656 211.46875 266.3125 C 212.152344 266.675781 212.785156 266.992188 213.320312 267.328125 C 213.589844 267.488281 213.84375 267.640625 214.082031 267.78125 C 214.199219 267.855469 214.3125 267.921875 214.421875 267.988281 C 214.527344 268.058594 214.628906 268.125 214.726562 268.191406 C 217.269531 269.859375 219.660156 271.753906 221.832031 273.878906 C 224.125 276.167969 226.125 278.734375 227.894531 281.449219 C 229.894531 284.59375 231.507812 288.007812 232.566406 291.605469 C 233.667969 295.191406 234.175781 298.957031 234.207031 302.71875 C 234.175781 306.484375 233.667969 310.246094 232.566406 313.832031 Z M 235.144531 302.691406 L 235.144531 302.6875 C 235.109375 298.84375 234.59375 295 233.472656 291.332031 C 232.394531 287.65625 230.746094 284.164062 228.691406 280.957031 L 227.703125 279.472656 C 227.703125 279.472656 227.417969 279.074219 226.988281 278.472656 C 226.574219 277.863281 225.945312 277.109375 225.339844 276.335938 C 224.691406 275.597656 224.070312 274.839844 223.546875 274.320312 C 223.035156 273.789062 222.695312 273.433594 222.695312 273.433594 C 222.695312 273.433594 222.609375 273.347656 222.457031 273.199219 C 222.300781 273.050781 222.082031 272.835938 221.816406 272.582031 C 221.300781 272.054688 220.550781 271.421875 219.816406 270.769531 C 219.4375 270.457031 219.050781 270.15625 218.691406 269.867188 C 218.511719 269.726562 218.339844 269.585938 218.171875 269.457031 C 218.003906 269.332031 217.839844 269.214844 217.691406 269.109375 C 217.09375 268.679688 216.695312 268.390625 216.695312 268.390625 C 216.695312 268.390625 216.609375 268.320312 216.46875 268.230469 C 216.332031 268.136719 216.144531 268.011719 215.960938 267.890625 C 215.589844 267.640625 215.21875 267.394531 215.21875 267.394531 C 215.121094 267.328125 215.019531 267.257812 214.910156 267.183594 C 214.796875 267.117188 214.683594 267.046875 214.5625 266.972656 C 214.320312 266.828125 214.058594 266.671875 213.78125 266.503906 C 213.234375 266.160156 212.589844 265.835938 211.890625 265.460938 C 211.714844 265.371094 211.539062 265.273438 211.351562 265.183594 C 211.164062 265.097656 210.972656 265.007812 210.78125 264.917969 C 210.390625 264.738281 209.988281 264.550781 209.574219 264.355469 C 208.71875 264.023438 207.832031 263.625 206.863281 263.3125 C 203.035156 261.921875 198.257812 261.058594 193.464844 261.042969 C 188.675781 261.058594 183.898438 261.921875 180.070312 263.3125 C 179.101562 263.625 178.210938 264.023438 177.359375 264.359375 C 176.945312 264.550781 176.542969 264.738281 176.152344 264.917969 C 175.960938 265.007812 175.769531 265.097656 175.582031 265.183594 C 175.394531 265.273438 175.21875 265.371094 175.042969 265.460938 C 174.34375 265.835938 173.695312 266.160156 173.148438 266.503906 C 172.875 266.671875 172.613281 266.828125 172.371094 266.972656 C 172.25 267.046875 172.136719 267.117188 172.023438 267.183594 C 171.914062 267.257812 171.8125 267.328125 171.714844 267.394531 C 171.714844 267.394531 171.34375 267.640625 170.972656 267.890625 C 170.789062 268.011719 170.601562 268.136719 170.464844 268.230469 C 170.324219 268.320312 170.238281 268.390625 170.238281 268.390625 C 170.238281 268.390625 169.839844 268.679688 169.242188 269.109375 C 169.09375 269.214844 168.929688 269.332031 168.761719 269.457031 C 168.59375 269.585938 168.421875 269.726562 168.242188 269.867188 C 167.882812 270.15625 167.496094 270.457031 167.117188 270.769531 C 166.382812 271.421875 165.632812 272.054688 165.117188 272.582031 C 164.851562 272.835938 164.632812 273.050781 164.476562 273.199219 C 164.324219 273.347656 164.238281 273.433594 164.238281 273.433594 C 164.238281 273.433594 163.898438 273.789062 163.386719 274.320312 C 162.863281 274.839844 162.242188 275.597656 161.589844 276.335938 C 160.988281 277.109375 160.355469 277.863281 159.945312 278.472656 C 159.515625 279.074219 159.230469 279.472656 159.230469 279.472656 L 158.242188 280.957031 C 156.1875 284.164062 154.539062 287.65625 153.460938 291.332031 C 152.339844 295 151.824219 298.84375 151.789062 302.6875 L 151.789062 302.75 C 151.824219 306.59375 152.339844 310.4375 153.460938 314.105469 C 154.539062 317.78125 156.1875 321.273438 158.242188 324.480469 L 159.230469 325.964844 C 159.230469 325.964844 159.515625 326.363281 159.945312 326.964844 C 160.355469 327.574219 160.988281 328.328125 161.589844 329.105469 C 162.242188 329.839844 162.863281 330.597656 163.386719 331.117188 C 163.898438 331.648438 164.238281 332.003906 164.238281 332.003906 C 164.238281 332.003906 164.324219 332.089844 164.476562 332.238281 C 164.632812 332.386719 164.851562 332.601562 165.117188 332.855469 C 165.632812 333.382812 166.382812 334.015625 167.117188 334.667969 C 167.496094 334.980469 167.882812 335.28125 168.242188 335.570312 C 168.421875 335.710938 168.59375 335.851562 168.761719 335.980469 C 168.929688 336.105469 169.09375 336.222656 169.242188 336.328125 C 169.839844 336.761719 170.238281 337.046875 170.238281 337.046875 C 170.238281 337.046875 170.324219 337.117188 170.464844 337.207031 C 170.601562 337.300781 170.789062 337.425781 170.972656 337.550781 C 171.34375 337.796875 171.714844 338.042969 171.714844 338.042969 C 171.8125 338.113281 171.914062 338.179688 172.023438 338.253906 C 172.136719 338.320312 172.25 338.390625 172.371094 338.464844 C 172.613281 338.609375 172.875 338.765625 173.148438 338.933594 C 173.699219 339.277344 174.34375 339.601562 175.042969 339.976562 C 175.21875 340.066406 175.394531 340.164062 175.582031 340.253906 C 175.769531 340.34375 175.960938 340.429688 176.152344 340.523438 C 176.542969 340.703125 176.945312 340.886719 177.359375 341.082031 C 178.214844 341.414062 179.101562 341.816406 180.070312 342.128906 C 183.898438 343.515625 188.675781 344.378906 193.464844 344.398438 C 198.257812 344.378906 203.035156 343.515625 206.863281 342.125 C 207.832031 341.816406 208.722656 341.414062 209.574219 341.082031 C 209.988281 340.886719 210.390625 340.703125 210.78125 340.519531 C 210.972656 340.429688 211.164062 340.34375 211.351562 340.253906 C 211.539062 340.164062 211.714844 340.066406 211.890625 339.976562 C 212.589844 339.601562 213.238281 339.277344 213.785156 338.933594 C 214.058594 338.765625 214.320312 338.609375 214.5625 338.464844 C 214.683594 338.390625 214.796875 338.320312 214.910156 338.253906 C 215.019531 338.179688 215.121094 338.113281 215.21875 338.042969 C 215.21875 338.042969 215.589844 337.796875 215.960938 337.550781 C 216.144531 337.425781 216.332031 337.300781 216.46875 337.207031 C 216.609375 337.117188 216.695312 337.046875 216.695312 337.046875 C 216.695312 337.046875 217.09375 336.761719 217.691406 336.328125 C 217.839844 336.222656 218.003906 336.105469 218.171875 335.980469 C 218.339844 335.851562 218.511719 335.710938 218.691406 335.570312 C 219.050781 335.28125 219.4375 334.980469 219.816406 334.667969 C 220.550781 334.015625 221.300781 333.382812 221.816406 332.855469 C 222.082031 332.601562 222.300781 332.386719 222.457031 332.238281 C 222.609375 332.089844 222.695312 332.003906 222.695312 332.003906 C 222.695312 332.003906 223.035156 331.648438 223.546875 331.117188 C 224.070312 330.597656 224.691406 329.839844 225.339844 329.105469 C 225.945312 328.328125 226.578125 327.574219 226.988281 326.964844 C 227.417969 326.363281 227.703125 325.964844 227.703125 325.964844 L 228.691406 324.480469 C 230.746094 321.273438 232.394531 317.78125 233.472656 314.105469 C 234.59375 310.4375 235.109375 306.59375 235.144531 302.75 L 235.144531 302.691406 " fill-opacity="1" fill-rule="nonzero"/></g><path fill="#0e284b" d="M 186 288.632812 L 189.355469 291.992188 L 179.941406 301.40625 L 176.582031 298.050781 L 186 288.632812 " fill-opacity="1" fill-rule="nonzero"/><g clip-path="url(#811424606a)"><path fill="#0e284b" d="M 183.921875 288.792969 L 179.441406 293.269531 L 175.683594 289.511719 L 169.367188 295.828125 L 167.527344 293.992188 L 169.765625 284.234375 L 174.566406 279.4375 L 183.921875 288.792969 " fill-opacity="1" fill-rule="nonzero"/></g><path fill="#0e284b" d="M 189.417969 293.011719 L 190.738281 294.332031 L 188.292969 296.773438 L 186.972656 295.453125 L 189.417969 293.011719 " fill-opacity="1" fill-rule="nonzero"/><path fill="#0e284b" d="M 176.222656 304.046875 L 178.863281 301.40625 L 176.34375 298.886719 L 173.703125 301.527344 L 176.222656 304.046875 " fill-opacity="1" fill-rule="nonzero"/><path fill="#0e284b" d="M 175.472656 297.238281 L 178.863281 293.851562 L 176.253906 291.242188 L 171.15625 296.339844 L 172.460938 297.644531 L 175.472656 297.238281 " fill-opacity="1" fill-rule="nonzero"/><path fill="#0e284b" d="M 192.699219 304.046875 L 185.457031 296.96875 L 181.28125 301.148438 L 188.246094 308.113281 L 192.699219 304.046875 " fill-opacity="1" fill-rule="nonzero"/><g clip-path="url(#0ed78c05b0)"><path fill="#0e284b" d="M 197.847656 309.359375 L 193.550781 313.417969 L 204.671875 324.535156 C 205.996094 325.859375 208.003906 326 209.160156 324.847656 C 210.3125 323.691406 210.171875 321.683594 208.847656 320.359375 L 197.847656 309.359375 " fill-opacity="1" fill-rule="nonzero"/></g><g clip-path="url(#0948f1c65d)"><path fill="#0e284b" d="M 217.128906 296.964844 L 219.414062 291.734375 L 217.753906 290.078125 L 214.121094 294.265625 L 209.75 295.320312 L 205.976562 291.550781 L 207.03125 287.179688 L 211.496094 283.820312 L 209.839844 282.164062 L 204.613281 284.445312 L 200.960938 288.097656 L 201.15625 297.472656 L 201.230469 297.546875 L 177.125 320.378906 C 176.003906 321.503906 176.003906 323.324219 177.125 324.449219 C 178.25 325.574219 180.070312 325.574219 181.195312 324.449219 L 204.453125 300.425781 L 213.476562 300.613281 L 217.128906 296.964844 " fill-opacity="1" fill-rule="nonzero"/></g><g fill="#0e284b" fill-opacity="1"><g transform="translate(170.550032, 273.246781)"><g><path d="M -1.171875 -4.4375 L 1.25 -0.84375 L 0.890625 -0.609375 L -1.296875 -3.859375 L -2.140625 -3.28125 L -2.375 -3.625 Z M -1.171875 -4.4375 "/></g></g></g><g fill="#0e284b" fill-opacity="1"><g transform="translate(173.069905, 271.551326)"><g><path d="M 1.671875 -0.875 C 1.390625 -0.71875 1.097656 -0.613281 0.796875 -0.5625 C 0.492188 -0.507812 0.234375 -0.523438 0.015625 -0.609375 L -0.015625 -0.984375 C 0.203125 -0.921875 0.445312 -0.910156 0.71875 -0.953125 C 1 -0.992188 1.253906 -1.082031 1.484375 -1.21875 C 1.828125 -1.394531 2.050781 -1.59375 2.15625 -1.8125 C 2.257812 -2.03125 2.257812 -2.234375 2.15625 -2.421875 C 2.070312 -2.578125 1.957031 -2.675781 1.8125 -2.71875 C 1.675781 -2.757812 1.523438 -2.769531 1.359375 -2.75 C 1.191406 -2.738281 0.972656 -2.691406 0.703125 -2.609375 C 0.390625 -2.523438 0.132812 -2.46875 -0.0625 -2.4375 C -0.269531 -2.414062 -0.472656 -2.441406 -0.671875 -2.515625 C -0.867188 -2.585938 -1.035156 -2.738281 -1.171875 -2.96875 C -1.273438 -3.164062 -1.316406 -3.367188 -1.296875 -3.578125 C -1.285156 -3.785156 -1.195312 -3.992188 -1.03125 -4.203125 C -0.875 -4.410156 -0.640625 -4.601562 -0.328125 -4.78125 C -0.109375 -4.894531 0.113281 -4.976562 0.34375 -5.03125 C 0.582031 -5.082031 0.8125 -5.097656 1.03125 -5.078125 L 1.0625 -4.6875 C 0.84375 -4.71875 0.628906 -4.707031 0.421875 -4.65625 C 0.210938 -4.601562 0.0234375 -4.53125 -0.140625 -4.4375 C -0.472656 -4.25 -0.691406 -4.046875 -0.796875 -3.828125 C -0.898438 -3.617188 -0.894531 -3.410156 -0.78125 -3.203125 C -0.695312 -3.046875 -0.582031 -2.945312 -0.4375 -2.90625 C -0.300781 -2.863281 -0.148438 -2.851562 0.015625 -2.875 C 0.191406 -2.90625 0.40625 -2.957031 0.65625 -3.03125 C 0.988281 -3.125 1.253906 -3.179688 1.453125 -3.203125 C 1.660156 -3.222656 1.859375 -3.195312 2.046875 -3.125 C 2.242188 -3.050781 2.40625 -2.898438 2.53125 -2.671875 C 2.632812 -2.484375 2.675781 -2.28125 2.65625 -2.0625 C 2.644531 -1.851562 2.554688 -1.644531 2.390625 -1.4375 C 2.222656 -1.226562 1.984375 -1.039062 1.671875 -0.875 Z M 1.671875 -0.875 "/></g></g></g><g fill="#0e284b" fill-opacity="1"><g transform="translate(177.113002, 269.415782)"><g><path d="M -0.03125 -4.21875 L -1.4375 -3.65625 L -1.59375 -4.03125 L 1.625 -5.34375 L 1.78125 -4.96875 L 0.390625 -4.390625 L 1.859375 -0.75 L 1.4375 -0.578125 Z M -0.03125 -4.21875 "/></g></g></g><g fill="#0e284b" fill-opacity="1"><g transform="translate(181.189878, 267.84363)"><g/></g></g><g fill="#0e284b" fill-opacity="1"><g transform="translate(183.49993, 267.09886)"><g><path d="M 2.53125 -0.484375 C 2.101562 -0.398438 1.703125 -0.414062 1.328125 -0.53125 C 0.960938 -0.644531 0.648438 -0.84375 0.390625 -1.125 C 0.140625 -1.414062 -0.0234375 -1.765625 -0.109375 -2.171875 C -0.191406 -2.578125 -0.171875 -2.96875 -0.046875 -3.34375 C 0.0664062 -3.71875 0.269531 -4.03125 0.5625 -4.28125 C 0.863281 -4.53125 1.234375 -4.703125 1.671875 -4.796875 C 1.972656 -4.859375 2.265625 -4.863281 2.546875 -4.8125 C 2.835938 -4.757812 3.097656 -4.65625 3.328125 -4.5 L 3.09375 -4.140625 C 2.707031 -4.421875 2.257812 -4.507812 1.75 -4.40625 C 1.414062 -4.332031 1.125 -4.1875 0.875 -3.96875 C 0.632812 -3.757812 0.460938 -3.503906 0.359375 -3.203125 C 0.253906 -2.910156 0.238281 -2.597656 0.3125 -2.265625 C 0.382812 -1.941406 0.523438 -1.660156 0.734375 -1.421875 C 0.941406 -1.191406 1.195312 -1.03125 1.5 -0.9375 C 1.8125 -0.84375 2.132812 -0.832031 2.46875 -0.90625 C 2.976562 -1.007812 3.359375 -1.257812 3.609375 -1.65625 L 3.953125 -1.421875 C 3.804688 -1.191406 3.609375 -0.992188 3.359375 -0.828125 C 3.117188 -0.671875 2.84375 -0.554688 2.53125 -0.484375 Z M 2.53125 -0.484375 "/></g></g></g><g fill="#0e284b" fill-opacity="1"><g transform="translate(188.582109, 266.097804)"><g><path d="M 3.3125 -1.40625 L 0.921875 -1.234375 L 0.484375 -0.03125 L 0.015625 0 L 1.65625 -4.453125 L 2.109375 -4.5 L 4.390625 -0.328125 L 3.921875 -0.296875 Z M 3.125 -1.765625 L 1.921875 -3.984375 L 1.0625 -1.625 Z M 3.125 -1.765625 "/></g></g></g><g fill="#0e284b" fill-opacity="1"><g transform="translate(193.757126, 265.782838)"><g><path d="M 0.90625 -4.296875 L 1.359375 -4.28125 L 1.171875 -0.34375 L 3.59375 -0.21875 L 3.578125 0.171875 L 0.703125 0.03125 Z M 0.90625 -4.296875 "/></g></g></g><g fill="#0e284b" fill-opacity="1"><g transform="translate(198.16419, 266.028617)"><g><path d="M 1.359375 -4.171875 L 1.8125 -4.09375 L 1.203125 -0.203125 L 3.59375 0.171875 L 3.53125 0.5625 L 0.6875 0.109375 Z M 1.359375 -4.171875 "/></g></g></g><g fill="#0e284b" fill-opacity="1"><g transform="translate(202.556226, 266.802933)"><g/></g></g><g fill="#0e284b" fill-opacity="1"><g transform="translate(204.9188, 267.359775)"><g><path d="M 3.640625 -3.296875 C 4.148438 -3.117188 4.503906 -2.851562 4.703125 -2.5 C 4.910156 -2.144531 4.941406 -1.753906 4.796875 -1.328125 C 4.640625 -0.878906 4.367188 -0.582031 3.984375 -0.4375 C 3.609375 -0.300781 3.164062 -0.320312 2.65625 -0.5 L 1.546875 -0.890625 L 1.09375 0.390625 L 0.65625 0.234375 L 2.09375 -3.84375 Z M 2.78125 -0.90625 C 3.175781 -0.757812 3.507812 -0.738281 3.78125 -0.84375 C 4.0625 -0.945312 4.257812 -1.160156 4.375 -1.484375 C 4.488281 -1.804688 4.46875 -2.09375 4.3125 -2.34375 C 4.164062 -2.59375 3.894531 -2.789062 3.5 -2.9375 L 2.40625 -3.3125 L 1.6875 -1.28125 Z M 2.78125 -0.90625 "/></g></g></g><g fill="#0e284b" fill-opacity="1"><g transform="translate(209.77061, 269.070833)"><g><path d="M 6.609375 -1.40625 L 4.578125 2.421875 L 4.203125 2.21875 L 5.8125 -0.828125 L 2.953125 0.953125 L 2.765625 0.84375 L 2.625 -2.5 L 1.015625 0.53125 L 0.625 0.328125 L 2.65625 -3.5 L 2.984375 -3.328125 L 3.125 0.390625 L 6.28125 -1.578125 Z M 6.609375 -1.40625 "/></g></g></g><g fill="#0e284b" fill-opacity="1"><g transform="translate(215.580863, 272.330763)"><g/></g></g><g fill="#000000" fill-opacity="1"><g transform="translate(190.501376, 341.8182)"><g><path d="M 13.828125 2.03125 C 13.878906 2.03125 13.929688 2.03125 13.984375 2.03125 L 13.984375 2.15625 C 13.753906 2.195312 13.492188 2.21875 13.203125 2.21875 C 12.910156 2.21875 12.550781 2.15625 12.125 2.03125 C 11.707031 1.90625 11.328125 1.671875 10.984375 1.328125 C 10.273438 0.617188 9.847656 -0.296875 9.703125 -1.421875 L 8.9375 -7.015625 L 6.3125 -1.109375 C 6.082031 -0.597656 5.941406 -0.171875 5.890625 0.171875 L 5.765625 0.171875 L 2.5 -6.90625 L 1.953125 -0.65625 C 1.929688 -0.507812 1.972656 -0.378906 2.078125 -0.265625 C 2.179688 -0.160156 2.296875 -0.109375 2.421875 -0.109375 L 2.625 -0.109375 L 2.625 0 L 0.1875 0 L 0.1875 -0.125 L 0.390625 -0.125 C 0.617188 -0.125 0.816406 -0.191406 0.984375 -0.328125 C 1.160156 -0.472656 1.269531 -0.65625 1.3125 -0.875 L 2.09375 -7.75 C 1.363281 -9.195312 0.484375 -9.921875 -0.546875 -9.921875 C -0.640625 -9.921875 -0.738281 -9.914062 -0.84375 -9.90625 L -0.84375 -10.03125 C -0.613281 -10.09375 -0.425781 -10.125 -0.28125 -10.125 C -0.144531 -10.125 0.00390625 -10.117188 0.171875 -10.109375 C 0.335938 -10.097656 0.535156 -10.054688 0.765625 -9.984375 C 0.992188 -9.921875 1.207031 -9.820312 1.40625 -9.6875 C 1.601562 -9.5625 1.773438 -9.425781 1.921875 -9.28125 C 2.078125 -9.144531 2.222656 -8.992188 2.359375 -8.828125 C 2.585938 -8.523438 2.769531 -8.238281 2.90625 -7.96875 L 5.9375 -1.390625 L 9.3125 -8.984375 L 9.4375 -8.984375 L 10.609375 -1.53125 C 10.785156 -0.363281 11.160156 0.519531 11.734375 1.125 C 12.316406 1.726562 13.015625 2.03125 13.828125 2.03125 Z M 13.828125 2.03125 "/></g></g></g><g fill="#000000" fill-opacity="1"><g transform="translate(185.175992, 340.305493)"><g><path d="M 5.625 -11.4375 C 6.550781 -11.4375 7.320312 -11.210938 7.9375 -10.765625 C 8.769531 -10.171875 9.1875 -9.238281 9.1875 -7.96875 C 9.1875 -7.050781 8.929688 -6.269531 8.421875 -5.625 C 7.867188 -4.9375 7.097656 -4.59375 6.109375 -4.59375 C 5.585938 -4.59375 5.113281 -4.71875 4.6875 -4.96875 C 4.257812 -5.21875 4.007812 -5.644531 3.9375 -6.25 L 4.078125 -6.296875 C 4.191406 -5.835938 4.460938 -5.519531 4.890625 -5.34375 C 5.179688 -5.207031 5.4375 -5.140625 5.65625 -5.140625 C 6.53125 -5.140625 7.164062 -5.484375 7.5625 -6.171875 C 7.84375 -6.671875 7.984375 -7.265625 7.984375 -7.953125 C 7.984375 -9.066406 7.675781 -9.867188 7.0625 -10.359375 C 6.59375 -10.742188 6 -10.9375 5.28125 -10.9375 C 5.101562 -10.9375 4.953125 -10.925781 4.828125 -10.90625 C 4.710938 -10.894531 4.179688 -10.804688 3.234375 -10.640625 L 3.234375 -1.171875 C 3.242188 -0.878906 3.347656 -0.632812 3.546875 -0.4375 C 3.753906 -0.25 3.988281 -0.15625 4.25 -0.15625 L 4.453125 -0.15625 L 4.453125 0 L 0.953125 0 L 0.953125 -0.15625 L 1.171875 -0.15625 C 1.429688 -0.15625 1.660156 -0.25 1.859375 -0.4375 C 2.066406 -0.632812 2.175781 -0.878906 2.1875 -1.171875 L 2.1875 -9.8125 C 2.1875 -10.09375 2.101562 -10.304688 1.9375 -10.453125 C 1.78125 -10.609375 1.578125 -10.6875 1.328125 -10.6875 C 1.273438 -10.6875 1.222656 -10.679688 1.171875 -10.671875 L 0.96875 -10.65625 L 0.9375 -10.828125 C 1.5 -10.878906 2.242188 -10.976562 3.171875 -11.125 C 4.109375 -11.28125 4.6875 -11.367188 4.90625 -11.390625 C 5.132812 -11.421875 5.375 -11.4375 5.625 -11.4375 Z M 5.625 -11.4375 "/></g></g></g></svg>