<svg xmlns="http://www.w3.org/2000/svg" xmlns:xlink="http://www.w3.org/1999/xlink" width="500" zoomAndPan="magnify" viewBox="0 0 375 374.999991" height="500" preserveAspectRatio="xMidYMid meet" version="1.0"><defs><g/><clipPath id="ba347705e1"><path d="M 120.546875 160.738281 L 254.796875 160.738281 L 254.796875 294.988281 L 120.546875 294.988281 Z M 120.546875 160.738281 " clip-rule="nonzero"/></clipPath><clipPath id="5a5963b9e4"><path d="M 127.433594 195.996094 L 247.433594 195.996094 L 247.433594 268.746094 L 127.433594 268.746094 Z M 127.433594 195.996094 " clip-rule="nonzero"/></clipPath><clipPath id="20e405a8fc"><path d="M 150 194.128906 L 174 194.128906 L 174 218 L 150 218 Z M 150 194.128906 " clip-rule="nonzero"/></clipPath></defs><rect x="-37.5" width="450" fill="#ffffff" y="-37.499999" height="449.999989" fill-opacity="1"/><rect x="-37.5" width="450" fill="#ffffff" y="-37.499999" height="449.999989" fill-opacity="1"/><g clip-path="url(#ba347705e1)"><path fill="#0e284b" d="M 250.304688 245.539062 C 248.605469 251.316406 246.015625 256.800781 242.796875 261.851562 C 240.144531 265.960938 237.125 269.820312 233.730469 273.335938 C 233.292969 273.816406 232.800781 274.246094 232.335938 274.699219 C 231.863281 275.140625 231.402344 275.601562 230.917969 276.035156 L 229.449219 277.316406 L 228.710938 277.957031 L 227.949219 278.5625 L 226.425781 279.777344 C 225.910156 280.171875 225.378906 280.546875 224.855469 280.933594 C 223.824219 281.722656 222.722656 282.417969 221.648438 283.148438 C 221.492188 283.253906 221.328125 283.363281 221.160156 283.476562 C 220.984375 283.582031 220.800781 283.691406 220.613281 283.808594 C 220.230469 284.035156 219.824219 284.277344 219.386719 284.539062 C 218.527344 285.078125 217.511719 285.585938 216.414062 286.171875 C 216.136719 286.3125 215.859375 286.46875 215.566406 286.609375 C 215.273438 286.746094 214.976562 286.882812 214.671875 287.023438 C 214.058594 287.308594 213.425781 287.597656 212.773438 287.902344 C 211.4375 288.425781 210.042969 289.050781 208.519531 289.539062 C 202.515625 291.714844 195.019531 293.0625 187.496094 293.09375 C 179.976562 293.0625 172.480469 291.714844 166.472656 289.539062 C 164.953125 289.050781 163.558594 288.425781 162.21875 287.902344 C 161.566406 287.597656 160.933594 287.308594 160.324219 287.023438 C 160.019531 286.882812 159.71875 286.746094 159.425781 286.609375 C 159.132812 286.46875 158.855469 286.3125 158.582031 286.171875 C 157.484375 285.585938 156.464844 285.078125 155.605469 284.539062 C 155.171875 284.277344 154.761719 284.035156 154.382812 283.808594 C 154.191406 283.691406 154.011719 283.582031 153.835938 283.476562 C 153.664062 283.363281 153.503906 283.253906 153.347656 283.152344 C 149.261719 280.472656 145.421875 277.429688 141.933594 274.011719 C 138.25 270.335938 135.035156 266.21875 132.195312 261.851562 C 128.980469 256.800781 126.386719 251.316406 124.6875 245.539062 C 122.921875 239.777344 122.105469 233.734375 122.050781 227.6875 C 122.105469 221.640625 122.921875 215.597656 124.6875 209.835938 C 126.386719 204.058594 128.980469 198.574219 132.195312 193.523438 C 134.851562 189.414062 137.871094 185.550781 141.261719 182.039062 C 141.703125 181.558594 142.191406 181.128906 142.65625 180.675781 C 143.132812 180.230469 143.589844 179.773438 144.074219 179.339844 L 145.546875 178.058594 L 146.28125 177.417969 L 147.042969 176.8125 L 148.566406 175.597656 C 149.082031 175.203125 149.617188 174.828125 150.136719 174.441406 C 151.171875 173.652344 152.269531 172.957031 153.347656 172.222656 C 153.5 172.121094 153.664062 172.011719 153.835938 171.898438 C 154.011719 171.792969 154.191406 171.683594 154.382812 171.566406 C 154.761719 171.339844 155.171875 171.097656 155.605469 170.835938 C 156.464844 170.296875 157.480469 169.789062 158.578125 169.203125 C 158.855469 169.0625 159.132812 168.90625 159.425781 168.765625 C 159.71875 168.628906 160.019531 168.492188 160.324219 168.347656 C 160.933594 168.066406 161.566406 167.773438 162.21875 167.472656 C 163.554688 166.949219 164.953125 166.324219 166.472656 165.835938 C 172.480469 163.65625 179.972656 162.3125 187.496094 162.28125 C 195.019531 162.3125 202.515625 163.65625 208.519531 165.835938 C 210.042969 166.324219 211.4375 166.949219 212.773438 167.472656 C 213.425781 167.773438 214.058594 168.066406 214.667969 168.347656 C 214.976562 168.492188 215.273438 168.628906 215.566406 168.765625 C 215.859375 168.90625 216.136719 169.0625 216.414062 169.203125 C 217.511719 169.789062 218.527344 170.296875 219.386719 170.835938 C 219.824219 171.097656 220.230469 171.339844 220.609375 171.566406 C 220.800781 171.679688 220.984375 171.789062 221.160156 171.898438 C 221.328125 172.011719 221.492188 172.121094 221.644531 172.222656 C 225.734375 174.902344 229.570312 177.945312 233.0625 181.359375 C 236.742188 185.039062 239.960938 189.15625 242.796875 193.523438 C 246.015625 198.574219 248.605469 204.058594 250.304688 209.835938 C 252.070312 215.597656 252.886719 221.640625 252.941406 227.6875 C 252.886719 233.734375 252.070312 239.777344 250.304688 245.539062 Z M 254.445312 227.644531 L 254.445312 227.636719 C 254.390625 221.464844 253.558594 215.289062 251.761719 209.398438 C 250.03125 203.488281 247.382812 197.882812 244.078125 192.730469 L 242.492188 190.347656 C 242.492188 190.347656 242.03125 189.703125 241.34375 188.742188 C 240.683594 187.757812 239.667969 186.546875 238.699219 185.304688 C 237.65625 184.121094 236.65625 182.902344 235.8125 182.070312 C 234.996094 181.214844 234.449219 180.648438 234.449219 180.648438 C 234.449219 180.648438 234.3125 180.503906 234.0625 180.265625 C 233.816406 180.027344 233.460938 179.683594 233.035156 179.273438 C 232.207031 178.429688 231.003906 177.410156 229.824219 176.367188 C 229.21875 175.863281 228.59375 175.382812 228.019531 174.917969 C 227.726562 174.6875 227.449219 174.464844 227.183594 174.253906 C 226.910156 174.058594 226.648438 173.871094 226.410156 173.695312 C 225.449219 173.003906 224.8125 172.542969 224.8125 172.542969 C 224.8125 172.542969 224.671875 172.429688 224.449219 172.285156 C 224.222656 172.136719 223.925781 171.9375 223.628906 171.738281 C 223.035156 171.339844 222.441406 170.941406 222.441406 170.941406 C 222.28125 170.835938 222.117188 170.722656 221.941406 170.605469 C 221.761719 170.496094 221.578125 170.382812 221.382812 170.265625 C 220.996094 170.03125 220.578125 169.78125 220.132812 169.515625 C 219.253906 168.960938 218.214844 168.4375 217.089844 167.839844 C 216.808594 167.695312 216.523438 167.535156 216.226562 167.390625 C 215.925781 167.25 215.621094 167.109375 215.308594 166.960938 C 214.683594 166.671875 214.035156 166.375 213.367188 166.0625 C 212 165.527344 210.570312 164.886719 209.015625 164.382812 C 202.867188 162.152344 195.195312 160.769531 187.496094 160.738281 C 179.800781 160.769531 172.125 162.152344 165.976562 164.382812 C 164.421875 164.886719 162.992188 165.527344 161.625 166.066406 C 160.957031 166.375 160.308594 166.671875 159.6875 166.964844 C 159.375 167.109375 159.066406 167.25 158.765625 167.390625 C 158.46875 167.535156 158.183594 167.695312 157.902344 167.839844 C 156.78125 168.4375 155.738281 168.960938 154.859375 169.515625 C 154.417969 169.78125 154 170.035156 153.609375 170.265625 C 153.417969 170.382812 153.230469 170.496094 153.050781 170.605469 C 152.878906 170.722656 152.710938 170.835938 152.554688 170.941406 C 152.554688 170.941406 151.957031 171.339844 151.363281 171.738281 C 151.066406 171.9375 150.769531 172.136719 150.546875 172.285156 C 150.320312 172.429688 150.183594 172.542969 150.183594 172.542969 C 150.183594 172.542969 149.542969 173.003906 148.582031 173.695312 C 148.34375 173.871094 148.085938 174.058594 147.808594 174.253906 C 147.542969 174.464844 147.265625 174.6875 146.976562 174.917969 C 146.398438 175.382812 145.777344 175.863281 145.171875 176.367188 C 143.988281 177.410156 142.785156 178.429688 141.957031 179.273438 C 141.53125 179.683594 141.175781 180.027344 140.929688 180.265625 C 140.679688 180.503906 140.542969 180.648438 140.542969 180.648438 C 140.542969 180.648438 139.996094 181.214844 139.179688 182.070312 C 138.339844 182.902344 137.335938 184.121094 136.292969 185.304688 C 135.324219 186.546875 134.3125 187.757812 133.648438 188.742188 C 132.960938 189.703125 132.5 190.347656 132.5 190.347656 L 130.914062 192.730469 C 127.613281 197.882812 124.960938 203.492188 123.234375 209.398438 C 121.433594 215.289062 120.605469 221.464844 120.550781 227.636719 L 120.546875 227.644531 L 120.546875 227.730469 L 120.550781 227.738281 C 120.605469 233.910156 121.433594 240.085938 123.234375 245.976562 C 124.960938 251.882812 127.613281 257.492188 130.914062 262.640625 L 132.5 265.027344 C 132.5 265.027344 132.960938 265.671875 133.648438 266.632812 C 134.3125 267.617188 135.324219 268.824219 136.292969 270.070312 C 137.335938 271.253906 138.339844 272.472656 139.179688 273.304688 C 139.996094 274.160156 140.542969 274.726562 140.542969 274.726562 C 140.542969 274.726562 140.679688 274.867188 140.929688 275.105469 C 141.175781 275.347656 141.53125 275.6875 141.957031 276.101562 C 142.785156 276.945312 143.988281 277.960938 145.171875 279.007812 C 145.777344 279.511719 146.398438 279.992188 146.976562 280.457031 C 147.265625 280.6875 147.542969 280.90625 147.808594 281.121094 C 148.085938 281.316406 148.34375 281.503906 148.582031 281.675781 C 149.542969 282.371094 150.183594 282.832031 150.183594 282.832031 C 150.183594 282.832031 150.320312 282.945312 150.546875 283.089844 C 150.769531 283.238281 151.066406 283.4375 151.363281 283.636719 C 151.957031 284.035156 152.554688 284.433594 152.554688 284.433594 C 152.710938 284.539062 152.878906 284.652344 153.050781 284.769531 C 153.230469 284.878906 153.417969 284.992188 153.609375 285.109375 C 154 285.339844 154.417969 285.59375 154.863281 285.859375 C 155.738281 286.414062 156.78125 286.9375 157.902344 287.535156 C 158.1875 287.679688 158.46875 287.839844 158.769531 287.984375 C 159.066406 288.125 159.375 288.265625 159.6875 288.410156 C 160.308594 288.699219 160.957031 289 161.625 289.308594 C 162.992188 289.847656 164.421875 290.488281 165.976562 290.992188 C 172.125 293.222656 179.800781 294.605469 187.496094 294.636719 C 195.195312 294.605469 202.867188 293.222656 209.015625 290.988281 C 210.570312 290.488281 212 289.847656 213.367188 289.308594 C 214.035156 289 214.683594 288.699219 215.308594 288.410156 C 215.621094 288.265625 215.925781 288.121094 216.226562 287.984375 C 216.523438 287.839844 216.808594 287.679688 217.089844 287.535156 C 218.214844 286.9375 219.253906 286.414062 220.132812 285.859375 C 220.578125 285.59375 220.996094 285.339844 221.382812 285.109375 C 221.578125 284.992188 221.761719 284.878906 221.941406 284.769531 C 222.117188 284.652344 222.28125 284.539062 222.441406 284.433594 C 222.441406 284.433594 223.035156 284.035156 223.628906 283.636719 C 223.925781 283.4375 224.226562 283.238281 224.449219 283.089844 C 224.671875 282.945312 224.8125 282.832031 224.8125 282.832031 C 224.8125 282.832031 225.449219 282.371094 226.410156 281.675781 C 226.648438 281.503906 226.910156 281.316406 227.183594 281.121094 C 227.449219 280.90625 227.726562 280.6875 228.019531 280.457031 C 228.59375 279.992188 229.21875 279.511719 229.824219 279.007812 C 231.003906 277.960938 232.207031 276.945312 233.035156 276.101562 C 233.460938 275.6875 233.816406 275.347656 234.0625 275.105469 C 234.3125 274.867188 234.449219 274.726562 234.449219 274.726562 C 234.449219 274.726562 234.996094 274.160156 235.8125 273.304688 C 236.65625 272.472656 237.65625 271.253906 238.699219 270.070312 C 239.667969 268.824219 240.683594 267.613281 241.34375 266.632812 C 242.035156 265.667969 242.492188 265.027344 242.492188 265.027344 L 244.078125 262.640625 C 247.382812 257.492188 250.03125 251.882812 251.761719 245.976562 C 253.558594 240.085938 254.390625 233.910156 254.445312 227.738281 L 254.445312 227.644531 " fill-opacity="1" fill-rule="nonzero"/></g><g clip-path="url(#5a5963b9e4)"><path fill="#0e284b" d="M 243.847656 243.703125 C 242.324219 248.890625 240 253.808594 237.113281 258.339844 C 234.730469 262.023438 232.019531 265.492188 228.976562 268.640625 C 228.582031 269.074219 228.144531 269.457031 227.726562 269.863281 C 227.300781 270.261719 226.886719 270.675781 226.453125 271.066406 L 225.136719 272.214844 L 224.476562 272.785156 L 223.789062 273.332031 L 222.425781 274.421875 C 221.960938 274.777344 221.484375 275.109375 221.015625 275.457031 C 220.089844 276.167969 219.101562 276.792969 218.136719 277.449219 C 217.996094 277.542969 217.851562 277.640625 217.699219 277.742188 C 217.542969 277.835938 217.378906 277.933594 217.207031 278.039062 C 216.867188 278.242188 216.5 278.460938 216.109375 278.691406 C 215.339844 279.179688 214.425781 279.632812 213.441406 280.15625 C 213.191406 280.285156 212.945312 280.425781 212.683594 280.550781 C 212.417969 280.671875 212.152344 280.796875 211.878906 280.925781 C 211.328125 281.175781 210.761719 281.441406 210.175781 281.710938 C 208.976562 282.179688 207.726562 282.742188 206.359375 283.179688 C 200.972656 285.132812 194.246094 286.339844 187.5 286.371094 C 180.75 286.339844 174.023438 285.132812 168.636719 283.179688 C 167.269531 282.742188 166.019531 282.179688 164.820312 281.710938 C 164.234375 281.441406 163.667969 281.175781 163.121094 280.925781 C 162.84375 280.796875 162.578125 280.671875 162.3125 280.550781 C 162.050781 280.425781 161.804688 280.285156 161.554688 280.15625 C 160.570312 279.632812 159.65625 279.179688 158.886719 278.695312 C 158.496094 278.460938 158.128906 278.242188 157.789062 278.039062 C 157.621094 277.933594 157.457031 277.835938 157.296875 277.742188 C 157.144531 277.640625 157 277.542969 156.859375 277.449219 C 153.195312 275.046875 149.75 272.316406 146.617188 269.25 C 143.316406 265.953125 140.429688 262.257812 137.882812 258.339844 C 134.996094 253.808594 132.671875 248.890625 131.148438 243.703125 C 129.5625 238.535156 128.832031 233.113281 128.785156 227.6875 C 128.832031 222.265625 129.5625 216.839844 131.148438 211.671875 C 132.671875 206.488281 134.996094 201.570312 137.882812 197.039062 C 140.265625 193.351562 142.976562 189.886719 146.019531 186.734375 C 146.414062 186.304688 146.851562 185.917969 147.269531 185.511719 C 147.695312 185.113281 148.109375 184.699219 148.542969 184.3125 L 149.859375 183.164062 L 150.519531 182.589844 L 151.207031 182.046875 L 152.570312 180.953125 C 153.035156 180.601562 153.511719 180.265625 153.980469 179.917969 C 154.90625 179.210938 155.894531 178.585938 156.859375 177.929688 C 157 177.835938 157.144531 177.738281 157.296875 177.636719 C 157.453125 177.539062 157.617188 177.441406 157.789062 177.339844 C 158.128906 177.136719 158.496094 176.917969 158.886719 176.683594 C 159.65625 176.199219 160.570312 175.742188 161.554688 175.21875 C 161.804688 175.09375 162.050781 174.953125 162.3125 174.828125 C 162.578125 174.703125 162.84375 174.578125 163.117188 174.453125 C 163.667969 174.199219 164.234375 173.9375 164.820312 173.667969 C 166.019531 173.199219 167.269531 172.632812 168.636719 172.199219 C 174.023438 170.242188 180.75 169.035156 187.5 169.007812 C 194.246094 169.035156 200.972656 170.242188 206.359375 172.199219 C 207.726562 172.632812 208.976562 173.199219 210.175781 173.667969 C 210.761719 173.9375 211.328125 174.199219 211.875 174.453125 C 212.152344 174.578125 212.417969 174.703125 212.683594 174.828125 C 212.945312 174.953125 213.191406 175.09375 213.441406 175.21875 C 214.425781 175.742188 215.339844 176.199219 216.109375 176.683594 C 216.5 176.917969 216.867188 177.136719 217.207031 177.339844 C 217.375 177.441406 217.539062 177.539062 217.699219 177.636719 C 217.851562 177.738281 217.996094 177.835938 218.136719 177.929688 C 221.800781 180.332031 225.246094 183.0625 228.378906 186.125 C 231.679688 189.425781 234.566406 193.121094 237.113281 197.039062 C 240 201.570312 242.324219 206.488281 243.847656 211.671875 C 245.433594 216.839844 246.164062 222.265625 246.210938 227.6875 C 246.164062 233.113281 245.433594 238.535156 243.847656 243.703125 Z M 247.5625 227.648438 L 247.5625 227.644531 C 247.511719 222.105469 246.765625 216.5625 245.152344 211.28125 C 243.601562 205.980469 241.226562 200.949219 238.261719 196.328125 L 236.835938 194.1875 C 236.835938 194.1875 236.425781 193.609375 235.808594 192.746094 C 235.214844 191.867188 234.304688 190.78125 233.433594 189.664062 C 232.5 188.601562 231.601562 187.507812 230.847656 186.761719 C 230.113281 185.996094 229.625 185.484375 229.625 185.484375 C 229.625 185.484375 229.5 185.359375 229.277344 185.144531 C 229.054688 184.929688 228.738281 184.621094 228.355469 184.253906 C 227.609375 183.496094 226.53125 182.582031 225.472656 181.644531 C 224.929688 181.195312 224.367188 180.761719 223.851562 180.347656 C 223.59375 180.140625 223.34375 179.941406 223.105469 179.75 C 222.859375 179.574219 222.625 179.40625 222.410156 179.25 C 221.550781 178.628906 220.976562 178.214844 220.976562 178.214844 C 220.976562 178.214844 220.851562 178.113281 220.648438 177.984375 C 220.449219 177.851562 220.183594 177.671875 219.914062 177.492188 C 219.382812 177.136719 218.847656 176.777344 218.847656 176.777344 C 218.707031 176.683594 218.554688 176.582031 218.402344 176.476562 C 218.242188 176.378906 218.074219 176.277344 217.898438 176.171875 C 217.550781 175.964844 217.175781 175.738281 216.777344 175.5 C 215.988281 175 215.054688 174.53125 214.046875 173.996094 C 213.796875 173.863281 213.539062 173.722656 213.273438 173.59375 C 213.003906 173.46875 212.726562 173.339844 212.449219 173.207031 C 211.890625 172.949219 211.308594 172.679688 210.710938 172.402344 C 209.480469 171.921875 208.199219 171.34375 206.804688 170.894531 C 201.289062 168.890625 194.402344 167.652344 187.5 167.625 C 180.59375 167.652344 173.707031 168.890625 168.191406 170.894531 C 166.796875 171.34375 165.515625 171.921875 164.285156 172.402344 C 163.6875 172.679688 163.105469 172.949219 162.546875 173.210938 C 162.265625 173.339844 161.992188 173.46875 161.722656 173.59375 C 161.453125 173.722656 161.199219 173.863281 160.945312 173.996094 C 159.941406 174.53125 159.007812 175 158.21875 175.5 C 157.820312 175.738281 157.445312 175.964844 157.097656 176.171875 C 156.921875 176.277344 156.753906 176.378906 156.59375 176.476562 C 156.4375 176.582031 156.289062 176.683594 156.148438 176.777344 C 156.148438 176.777344 155.613281 177.136719 155.082031 177.492188 C 154.8125 177.671875 154.546875 177.851562 154.347656 177.984375 C 154.144531 178.113281 154.019531 178.214844 154.019531 178.214844 C 154.019531 178.214844 153.445312 178.628906 152.585938 179.25 C 152.371094 179.40625 152.136719 179.574219 151.890625 179.75 C 151.652344 179.941406 151.402344 180.140625 151.144531 180.347656 C 150.628906 180.761719 150.066406 181.195312 149.523438 181.644531 C 148.464844 182.582031 147.386719 183.496094 146.640625 184.253906 C 146.257812 184.621094 145.941406 184.929688 145.71875 185.144531 C 145.496094 185.359375 145.371094 185.484375 145.371094 185.484375 C 145.371094 185.484375 144.882812 185.996094 144.148438 186.761719 C 143.394531 187.507812 142.496094 188.601562 141.5625 189.664062 C 140.691406 190.78125 139.78125 191.867188 139.1875 192.746094 C 138.570312 193.613281 138.15625 194.1875 138.15625 194.1875 L 136.734375 196.328125 C 133.769531 200.949219 131.394531 205.980469 129.84375 211.28125 C 128.230469 216.5625 127.484375 222.105469 127.433594 227.644531 L 127.433594 227.734375 C 127.484375 233.273438 128.230469 238.8125 129.84375 244.097656 C 131.394531 249.398438 133.769531 254.429688 136.734375 259.050781 L 138.160156 261.1875 C 138.160156 261.1875 138.570312 261.765625 139.1875 262.628906 C 139.78125 263.511719 140.691406 264.597656 141.5625 265.714844 C 142.496094 266.773438 143.394531 267.867188 144.148438 268.613281 C 144.882812 269.378906 145.371094 269.890625 145.371094 269.890625 C 145.371094 269.890625 145.496094 270.019531 145.71875 270.230469 C 145.941406 270.445312 146.257812 270.753906 146.640625 271.121094 C 147.386719 271.878906 148.464844 272.792969 149.523438 273.730469 C 150.066406 274.183594 150.628906 274.613281 151.144531 275.03125 C 151.402344 275.238281 151.652344 275.4375 151.890625 275.625 C 152.136719 275.804688 152.371094 275.972656 152.585938 276.125 C 153.445312 276.746094 154.019531 277.160156 154.019531 277.160156 C 154.019531 277.160156 154.144531 277.261719 154.347656 277.394531 C 154.546875 277.527344 154.8125 277.707031 155.082031 277.882812 C 155.613281 278.242188 156.148438 278.597656 156.148438 278.597656 C 156.289062 278.695312 156.441406 278.796875 156.59375 278.902344 C 156.757812 279 156.921875 279.097656 157.097656 279.203125 C 157.445312 279.414062 157.820312 279.640625 158.21875 279.878906 C 159.007812 280.375 159.941406 280.84375 160.949219 281.382812 C 161.199219 281.511719 161.457031 281.65625 161.722656 281.785156 C 161.992188 281.910156 162.269531 282.039062 162.546875 282.167969 C 163.105469 282.429688 163.6875 282.695312 164.289062 282.972656 C 165.515625 283.457031 166.796875 284.03125 168.191406 284.480469 C 173.707031 286.484375 180.59375 287.726562 187.5 287.753906 C 194.402344 287.726562 201.289062 286.484375 206.804688 284.480469 C 208.199219 284.03125 209.480469 283.457031 210.710938 282.972656 C 211.308594 282.695312 211.890625 282.429688 212.449219 282.167969 C 212.730469 282.039062 213.003906 281.910156 213.273438 281.785156 C 213.542969 281.65625 213.796875 281.511719 214.050781 281.382812 C 215.054688 280.84375 215.988281 280.375 216.777344 279.878906 C 217.175781 279.640625 217.550781 279.414062 217.898438 279.203125 C 218.074219 279.097656 218.242188 278.996094 218.402344 278.902344 C 218.558594 278.796875 218.707031 278.695312 218.847656 278.597656 C 218.847656 278.597656 219.382812 278.242188 219.914062 277.882812 C 220.183594 277.707031 220.449219 277.527344 220.648438 277.394531 C 220.851562 277.261719 220.976562 277.160156 220.976562 277.160156 C 220.976562 277.160156 221.550781 276.746094 222.410156 276.125 C 222.625 275.972656 222.859375 275.804688 223.105469 275.625 C 223.34375 275.4375 223.59375 275.238281 223.851562 275.03125 C 224.367188 274.613281 224.929688 274.183594 225.472656 273.730469 C 226.53125 272.792969 227.609375 271.878906 228.355469 271.121094 C 228.738281 270.753906 229.054688 270.445312 229.277344 270.230469 C 229.5 270.019531 229.625 269.890625 229.625 269.890625 C 229.625 269.890625 230.113281 269.378906 230.847656 268.613281 C 231.601562 267.867188 232.5 266.773438 233.433594 265.714844 C 234.304688 264.597656 235.214844 263.511719 235.808594 262.628906 C 236.425781 261.765625 236.835938 261.1875 236.835938 261.1875 L 238.261719 259.050781 C 241.226562 254.429688 243.601562 249.398438 245.152344 244.097656 C 246.765625 238.8125 247.511719 233.269531 247.5625 227.734375 L 247.5625 227.648438 " fill-opacity="1" fill-rule="nonzero"/></g><path fill="#0e284b" d="M 176.730469 207.386719 L 181.570312 212.230469 L 168 225.800781 L 163.160156 220.960938 L 176.730469 207.386719 " fill-opacity="1" fill-rule="nonzero"/><g clip-path="url(#20e405a8fc)"><path fill="#0e284b" d="M 173.734375 207.617188 L 167.28125 214.074219 L 161.863281 208.65625 L 152.757812 217.761719 L 150.109375 215.109375 L 153.335938 201.046875 L 160.25 194.132812 L 173.734375 207.617188 " fill-opacity="1" fill-rule="nonzero"/></g><path fill="#0e284b" d="M 181.660156 213.699219 L 183.5625 215.601562 L 180.039062 219.121094 L 178.136719 217.21875 L 181.660156 213.699219 " fill-opacity="1" fill-rule="nonzero"/><path fill="#0e284b" d="M 162.640625 229.605469 L 166.445312 225.800781 L 162.816406 222.167969 L 159.011719 225.972656 L 162.640625 229.605469 " fill-opacity="1" fill-rule="nonzero"/><path fill="#0e284b" d="M 161.5625 219.792969 L 166.445312 214.910156 L 162.683594 211.148438 L 155.335938 218.496094 L 157.21875 220.375 L 161.5625 219.792969 " fill-opacity="1" fill-rule="nonzero"/><path fill="#0e284b" d="M 186.390625 229.605469 L 175.953125 219.402344 L 169.933594 225.425781 L 179.972656 235.464844 L 186.390625 229.605469 " fill-opacity="1" fill-rule="nonzero"/><path fill="#0e284b" d="M 193.808594 237.261719 L 187.617188 243.109375 L 203.644531 259.136719 C 205.554688 261.046875 208.449219 261.25 210.113281 259.585938 C 211.773438 257.921875 211.574219 255.027344 209.667969 253.117188 L 193.808594 237.261719 " fill-opacity="1" fill-rule="nonzero"/><path fill="#0e284b" d="M 221.601562 219.394531 L 224.894531 211.859375 L 222.503906 209.472656 L 217.265625 215.507812 L 210.96875 217.03125 L 205.527344 211.589844 L 207.050781 205.292969 L 213.484375 200.453125 L 211.09375 198.0625 L 203.558594 201.351562 L 198.296875 206.617188 L 198.578125 220.128906 L 198.6875 220.238281 L 163.941406 253.148438 C 162.324219 254.769531 162.324219 257.394531 163.941406 259.011719 C 165.5625 260.632812 168.1875 260.632812 169.804688 259.011719 L 203.332031 224.386719 L 216.339844 224.65625 L 221.601562 219.394531 " fill-opacity="1" fill-rule="nonzero"/><g fill="#0e284b" fill-opacity="1"><g transform="translate(154.469948, 185.213139)"><g><path d="M -1.65625 -6.375 L 1.8125 -1.21875 L 1.28125 -0.859375 L -1.875 -5.546875 L -3.09375 -4.734375 L -3.40625 -5.203125 Z M -1.65625 -6.375 "/></g></g></g><g fill="#0e284b" fill-opacity="1"><g transform="translate(158.101306, 182.769863)"><g><path d="M 2.421875 -1.25 C 2.003906 -1.03125 1.578125 -0.882812 1.140625 -0.8125 C 0.703125 -0.738281 0.328125 -0.753906 0.015625 -0.859375 L -0.015625 -1.4375 C 0.296875 -1.34375 0.648438 -1.320312 1.046875 -1.375 C 1.441406 -1.425781 1.816406 -1.546875 2.171875 -1.734375 C 2.648438 -2.003906 2.960938 -2.296875 3.109375 -2.609375 C 3.265625 -2.921875 3.265625 -3.222656 3.109375 -3.515625 C 2.984375 -3.734375 2.816406 -3.867188 2.609375 -3.921875 C 2.410156 -3.984375 2.191406 -4 1.953125 -3.96875 C 1.722656 -3.9375 1.414062 -3.863281 1.03125 -3.75 C 0.570312 -3.632812 0.195312 -3.554688 -0.09375 -3.515625 C -0.394531 -3.484375 -0.6875 -3.515625 -0.96875 -3.609375 C -1.257812 -3.710938 -1.492188 -3.9375 -1.671875 -4.28125 C -1.828125 -4.5625 -1.890625 -4.851562 -1.859375 -5.15625 C -1.835938 -5.457031 -1.710938 -5.757812 -1.484375 -6.0625 C -1.265625 -6.363281 -0.929688 -6.632812 -0.484375 -6.875 C -0.171875 -7.039062 0.15625 -7.164062 0.5 -7.25 C 0.851562 -7.332031 1.179688 -7.351562 1.484375 -7.3125 L 1.53125 -6.75 C 1.226562 -6.769531 0.921875 -6.75 0.609375 -6.6875 C 0.304688 -6.632812 0.03125 -6.535156 -0.21875 -6.390625 C -0.695312 -6.128906 -1.003906 -5.835938 -1.140625 -5.515625 C -1.273438 -5.203125 -1.265625 -4.898438 -1.109375 -4.609375 C -0.992188 -4.390625 -0.832031 -4.25 -0.625 -4.1875 C -0.425781 -4.132812 -0.207031 -4.125 0.03125 -4.15625 C 0.28125 -4.195312 0.59375 -4.269531 0.96875 -4.375 C 1.425781 -4.488281 1.800781 -4.5625 2.09375 -4.59375 C 2.394531 -4.632812 2.679688 -4.601562 2.953125 -4.5 C 3.234375 -4.40625 3.46875 -4.1875 3.65625 -3.84375 C 3.800781 -3.570312 3.863281 -3.285156 3.84375 -2.984375 C 3.820312 -2.679688 3.691406 -2.378906 3.453125 -2.078125 C 3.210938 -1.773438 2.867188 -1.5 2.421875 -1.25 Z M 2.421875 -1.25 "/></g></g></g><g fill="#0e284b" fill-opacity="1"><g transform="translate(163.927754, 179.692363)"><g><path d="M -0.0625 -6.0625 L -2.09375 -5.25 L -2.3125 -5.78125 L 2.34375 -7.671875 L 2.5625 -7.140625 L 0.53125 -6.3125 L 2.65625 -1.078125 L 2.0625 -0.828125 Z M -0.0625 -6.0625 "/></g></g></g><g fill="#0e284b" fill-opacity="1"><g transform="translate(169.802861, 177.426756)"><g/></g></g><g fill="#0e284b" fill-opacity="1"><g transform="translate(173.131849, 176.353458)"><g><path d="M 3.65625 -0.703125 C 3.050781 -0.578125 2.476562 -0.597656 1.9375 -0.765625 C 1.394531 -0.929688 0.9375 -1.222656 0.5625 -1.640625 C 0.1875 -2.054688 -0.0546875 -2.554688 -0.171875 -3.140625 C -0.296875 -3.734375 -0.269531 -4.289062 -0.09375 -4.8125 C 0.0820312 -5.34375 0.382812 -5.789062 0.8125 -6.15625 C 1.25 -6.53125 1.769531 -6.78125 2.375 -6.90625 C 2.832031 -7 3.269531 -7.003906 3.6875 -6.921875 C 4.101562 -6.847656 4.46875 -6.703125 4.78125 -6.484375 L 4.46875 -5.96875 C 3.894531 -6.351562 3.242188 -6.472656 2.515625 -6.328125 C 2.023438 -6.222656 1.609375 -6.019531 1.265625 -5.71875 C 0.921875 -5.414062 0.675781 -5.050781 0.53125 -4.625 C 0.382812 -4.195312 0.363281 -3.742188 0.46875 -3.265625 C 0.5625 -2.785156 0.757812 -2.375 1.0625 -2.03125 C 1.363281 -1.695312 1.734375 -1.460938 2.171875 -1.328125 C 2.609375 -1.191406 3.070312 -1.175781 3.5625 -1.28125 C 4.289062 -1.425781 4.835938 -1.789062 5.203125 -2.375 L 5.703125 -2.0625 C 5.503906 -1.707031 5.222656 -1.414062 4.859375 -1.1875 C 4.503906 -0.957031 4.101562 -0.796875 3.65625 -0.703125 Z M 3.65625 -0.703125 "/></g></g></g><g fill="#0e284b" fill-opacity="1"><g transform="translate(180.455694, 174.910873)"><g><path d="M 4.78125 -2.015625 L 1.328125 -1.765625 L 0.703125 -0.046875 L 0.015625 0 L 2.390625 -6.421875 L 3.046875 -6.46875 L 6.34375 -0.46875 L 5.640625 -0.421875 Z M 4.5 -2.546875 L 2.765625 -5.75 L 1.53125 -2.328125 Z M 4.5 -2.546875 "/></g></g></g><g fill="#0e284b" fill-opacity="1"><g transform="translate(187.913334, 174.456985)"><g><path d="M 1.296875 -6.171875 L 1.953125 -6.140625 L 1.703125 -0.484375 L 5.1875 -0.328125 L 5.15625 0.234375 L 1.015625 0.046875 Z M 1.296875 -6.171875 "/></g></g></g><g fill="#0e284b" fill-opacity="1"><g transform="translate(194.264289, 174.811145)"><g><path d="M 1.96875 -5.984375 L 2.625 -5.875 L 1.75 -0.296875 L 5.1875 0.234375 L 5.09375 0.796875 L 1 0.15625 Z M 1.96875 -5.984375 "/></g></g></g><g fill="#0e284b" fill-opacity="1"><g transform="translate(200.593556, 175.927018)"><g/></g></g><g fill="#0e284b" fill-opacity="1"><g transform="translate(203.998258, 176.729472)"><g><path d="M 5.21875 -4.75 C 5.957031 -4.476562 6.476562 -4.085938 6.78125 -3.578125 C 7.082031 -3.078125 7.125 -2.519531 6.90625 -1.90625 C 6.6875 -1.28125 6.300781 -0.863281 5.75 -0.65625 C 5.195312 -0.445312 4.550781 -0.476562 3.8125 -0.75 L 2.234375 -1.296875 L 1.578125 0.5625 L 0.953125 0.34375 L 3.015625 -5.515625 Z M 3.984375 -1.296875 C 4.554688 -1.085938 5.046875 -1.054688 5.453125 -1.203125 C 5.859375 -1.347656 6.140625 -1.648438 6.296875 -2.109375 C 6.460938 -2.578125 6.429688 -2.992188 6.203125 -3.359375 C 5.984375 -3.722656 5.585938 -4.007812 5.015625 -4.21875 L 3.453125 -4.765625 L 2.421875 -1.84375 Z M 3.984375 -1.296875 "/></g></g></g><g fill="#0e284b" fill-opacity="1"><g transform="translate(210.990113, 179.195272)"><g><path d="M 9.515625 -2 L 6.609375 3.5 L 6.046875 3.203125 L 8.375 -1.203125 L 4.265625 1.359375 L 4 1.203125 L 3.765625 -3.609375 L 1.453125 0.765625 L 0.890625 0.46875 L 3.796875 -5.03125 L 4.28125 -4.765625 L 4.515625 0.578125 L 9.03125 -2.25 Z M 9.515625 -2 "/></g></g></g><g fill="#0e284b" fill-opacity="1"><g transform="translate(219.363181, 183.893099)"><g/></g></g><g fill="#000000" fill-opacity="1"><g transform="translate(183.221521, 284.030401)"><g><path d="M 19.9375 2.9375 C 20.007812 2.9375 20.082031 2.9375 20.15625 2.9375 L 20.15625 3.125 C 19.8125 3.164062 19.429688 3.1875 19.015625 3.1875 C 18.597656 3.1875 18.082031 3.09375 17.46875 2.90625 C 16.863281 2.726562 16.316406 2.394531 15.828125 1.90625 C 14.804688 0.882812 14.1875 -0.429688 13.96875 -2.046875 L 12.875 -10.109375 L 9.09375 -1.59375 C 8.757812 -0.851562 8.554688 -0.238281 8.484375 0.25 L 8.296875 0.25 L 3.609375 -9.953125 L 2.8125 -0.9375 C 2.78125 -0.738281 2.835938 -0.554688 2.984375 -0.390625 C 3.140625 -0.234375 3.3125 -0.15625 3.5 -0.15625 L 3.78125 -0.15625 L 3.78125 0 L 0.265625 0 L 0.265625 -0.1875 L 0.5625 -0.1875 C 0.882812 -0.1875 1.171875 -0.285156 1.421875 -0.484375 C 1.671875 -0.679688 1.828125 -0.941406 1.890625 -1.265625 L 3.03125 -11.171875 C 1.96875 -13.253906 0.691406 -14.296875 -0.796875 -14.296875 C -0.929688 -14.296875 -1.070312 -14.289062 -1.21875 -14.28125 L -1.21875 -14.46875 C -0.882812 -14.550781 -0.613281 -14.59375 -0.40625 -14.59375 C -0.207031 -14.59375 0.0078125 -14.582031 0.25 -14.5625 C 0.488281 -14.539062 0.769531 -14.484375 1.09375 -14.390625 C 1.425781 -14.296875 1.738281 -14.15625 2.03125 -13.96875 C 2.320312 -13.78125 2.578125 -13.585938 2.796875 -13.390625 C 3.015625 -13.191406 3.21875 -12.96875 3.40625 -12.71875 C 3.726562 -12.289062 3.988281 -11.875 4.1875 -11.46875 L 8.5625 -2.015625 L 13.4375 -12.9375 L 13.59375 -12.9375 L 15.28125 -2.21875 C 15.53125 -0.519531 16.070312 0.757812 16.90625 1.625 C 17.75 2.5 18.757812 2.9375 19.9375 2.9375 Z M 19.9375 2.9375 "/></g></g></g><g fill="#000000" fill-opacity="1"><g transform="translate(175.547186, 281.85038)"><g><path d="M 8.109375 -16.484375 C 9.441406 -16.484375 10.554688 -16.160156 11.453125 -15.515625 C 12.648438 -14.660156 13.25 -13.320312 13.25 -11.5 C 13.25 -10.175781 12.878906 -9.046875 12.140625 -8.109375 C 11.335938 -7.109375 10.222656 -6.609375 8.796875 -6.609375 C 8.046875 -6.609375 7.363281 -6.785156 6.75 -7.140625 C 6.132812 -7.503906 5.773438 -8.125 5.671875 -9 L 5.875 -9.078125 C 6.039062 -8.410156 6.429688 -7.945312 7.046875 -7.6875 C 7.460938 -7.507812 7.832031 -7.421875 8.15625 -7.421875 C 9.414062 -7.421875 10.328125 -7.910156 10.890625 -8.890625 C 11.304688 -9.609375 11.515625 -10.46875 11.515625 -11.46875 C 11.515625 -13.0625 11.070312 -14.210938 10.1875 -14.921875 C 9.507812 -15.472656 8.644531 -15.75 7.59375 -15.75 C 7.351562 -15.75 7.144531 -15.738281 6.96875 -15.71875 C 6.789062 -15.695312 6.019531 -15.570312 4.65625 -15.34375 L 4.65625 -1.6875 C 4.664062 -1.269531 4.816406 -0.921875 5.109375 -0.640625 C 5.398438 -0.367188 5.738281 -0.234375 6.125 -0.234375 L 6.421875 -0.234375 L 6.421875 0 L 1.375 0 L 1.375 -0.234375 L 1.6875 -0.234375 C 2.0625 -0.234375 2.394531 -0.367188 2.6875 -0.640625 C 2.976562 -0.921875 3.132812 -1.269531 3.15625 -1.6875 L 3.15625 -14.140625 C 3.15625 -14.535156 3.039062 -14.84375 2.8125 -15.0625 C 2.582031 -15.289062 2.28125 -15.40625 1.90625 -15.40625 C 1.832031 -15.40625 1.757812 -15.398438 1.6875 -15.390625 L 1.40625 -15.359375 L 1.359375 -15.59375 C 2.160156 -15.664062 3.234375 -15.8125 4.578125 -16.03125 C 5.921875 -16.257812 6.75 -16.390625 7.0625 -16.421875 C 7.382812 -16.460938 7.734375 -16.484375 8.109375 -16.484375 Z M 8.109375 -16.484375 "/></g></g></g></svg>