<svg xmlns="http://www.w3.org/2000/svg" xmlns:xlink="http://www.w3.org/1999/xlink" width="500" zoomAndPan="magnify" viewBox="0 0 375 374.999991" height="500" preserveAspectRatio="xMidYMid meet" version="1.0"><defs><g/><clipPath id="fa6567f3dd"><path d="M 130.21875 176.226562 L 231.691406 176.226562 L 231.691406 277.699219 L 130.21875 277.699219 Z M 130.21875 176.226562 " clip-rule="nonzero"/></clipPath><clipPath id="73feb14251"><path d="M 135.4375 202.957031 L 226.492188 202.957031 L 226.492188 258.035156 L 135.4375 258.035156 Z M 135.4375 202.957031 " clip-rule="nonzero"/></clipPath><clipPath id="821f543d8f"><path d="M 152.546875 201.539062 L 171 201.539062 L 171 220 L 152.546875 220 Z M 152.546875 201.539062 " clip-rule="nonzero"/></clipPath><clipPath id="4198aac08b"><path d="M 181 234 L 199 234 L 199 252.46875 L 181 252.46875 Z M 181 234 " clip-rule="nonzero"/></clipPath><clipPath id="694cc15352"><path d="M 162 204 L 209.359375 204 L 209.359375 252 L 162 252 Z M 162 204 " clip-rule="nonzero"/></clipPath><clipPath id="a51596cffa"><path d="M 111.496094 305.953125 L 167.746094 305.953125 L 167.746094 319.453125 L 111.496094 319.453125 Z M 111.496094 305.953125 " clip-rule="nonzero"/></clipPath><clipPath id="8216302a2e"><path d="M 206 302 L 264 302 L 264 312 L 206 312 Z M 206 302 " clip-rule="nonzero"/></clipPath><clipPath id="f8ffb71224"><path d="M 207.285156 298.042969 L 263.351562 302.59375 L 262.261719 316.050781 L 206.195312 311.5 Z M 207.285156 298.042969 " clip-rule="nonzero"/></clipPath><clipPath id="d7532d1850"><path d="M 262.421875 315.957031 L 206.355469 311.40625 L 207.445312 297.953125 L 263.511719 302.5 Z M 262.421875 315.957031 " clip-rule="nonzero"/></clipPath><clipPath id="9e15973b12"><path d="M 262.421875 315.957031 L 206.355469 311.40625 L 207.445312 297.953125 L 263.511719 302.5 Z M 262.421875 315.957031 " clip-rule="nonzero"/></clipPath></defs><g clip-path="url(#fa6567f3dd)"><path fill="#0e284b" d="M 228.597656 240.519531 C 227.308594 244.902344 225.34375 249.058594 222.90625 252.886719 C 220.890625 256 218.601562 258.929688 216.03125 261.59375 C 215.699219 261.957031 215.328125 262.28125 214.972656 262.625 C 214.613281 262.964844 214.265625 263.3125 213.898438 263.640625 L 212.78125 264.609375 L 212.226562 265.097656 L 211.648438 265.554688 L 210.492188 266.480469 C 210.101562 266.777344 209.699219 267.058594 209.300781 267.351562 C 208.519531 267.953125 207.683594 268.480469 206.867188 269.035156 C 206.75 269.113281 206.628906 269.195312 206.5 269.285156 C 206.367188 269.363281 206.226562 269.445312 206.082031 269.53125 C 205.796875 269.707031 205.484375 269.890625 205.15625 270.085938 C 204.503906 270.496094 203.734375 270.882812 202.902344 271.324219 C 202.691406 271.433594 202.480469 271.550781 202.261719 271.65625 C 202.039062 271.761719 201.8125 271.867188 201.578125 271.972656 C 201.117188 272.1875 200.636719 272.410156 200.140625 272.636719 C 199.128906 273.035156 198.070312 273.507812 196.917969 273.878906 C 192.363281 275.53125 186.679688 276.550781 180.976562 276.574219 C 175.273438 276.550781 169.589844 275.53125 165.039062 273.878906 C 163.882812 273.507812 162.828125 273.035156 161.8125 272.636719 C 161.316406 272.410156 160.839844 272.1875 160.375 271.972656 C 160.144531 271.867188 159.917969 271.761719 159.695312 271.65625 C 159.472656 271.550781 159.261719 271.433594 159.054688 271.324219 C 158.222656 270.882812 157.449219 270.496094 156.796875 270.085938 C 156.46875 269.890625 156.160156 269.707031 155.871094 269.53125 C 155.726562 269.445312 155.589844 269.363281 155.457031 269.285156 C 155.328125 269.195312 155.203125 269.113281 155.085938 269.035156 C 151.988281 267.003906 149.078125 264.699219 146.429688 262.109375 C 143.640625 259.320312 141.199219 256.199219 139.050781 252.886719 C 136.609375 249.058594 134.644531 244.902344 133.359375 240.519531 C 132.019531 236.152344 131.398438 231.566406 131.359375 226.984375 C 131.398438 222.402344 132.019531 217.816406 133.359375 213.449219 C 134.644531 209.070312 136.609375 204.910156 139.050781 201.082031 C 141.0625 197.96875 143.351562 195.039062 145.925781 192.375 C 146.257812 192.011719 146.628906 191.6875 146.980469 191.34375 C 147.339844 191.003906 147.6875 190.65625 148.054688 190.328125 L 149.171875 189.359375 L 149.730469 188.871094 L 150.308594 188.414062 L 151.460938 187.492188 C 151.851562 187.191406 152.257812 186.910156 152.652344 186.617188 C 153.4375 186.015625 154.269531 185.488281 155.085938 184.933594 C 155.203125 184.855469 155.328125 184.773438 155.457031 184.6875 C 155.589844 184.605469 155.726562 184.523438 155.871094 184.4375 C 156.160156 184.265625 156.46875 184.078125 156.796875 183.882812 C 157.449219 183.472656 158.222656 183.085938 159.054688 182.644531 C 159.261719 182.535156 159.472656 182.417969 159.695312 182.3125 C 159.917969 182.207031 160.144531 182.101562 160.375 181.996094 C 160.835938 181.78125 161.316406 181.5625 161.8125 181.332031 C 162.824219 180.9375 163.882812 180.460938 165.035156 180.089844 C 169.589844 178.4375 175.273438 177.417969 180.976562 177.394531 C 186.679688 177.417969 192.363281 178.4375 196.917969 180.089844 C 198.070312 180.460938 199.128906 180.9375 200.140625 181.332031 C 200.636719 181.5625 201.117188 181.78125 201.578125 181.996094 C 201.808594 182.101562 202.039062 182.207031 202.261719 182.3125 C 202.480469 182.417969 202.691406 182.535156 202.902344 182.644531 C 203.734375 183.085938 204.503906 183.472656 205.15625 183.882812 C 205.484375 184.078125 205.796875 184.265625 206.082031 184.4375 C 206.226562 184.523438 206.367188 184.605469 206.5 184.6875 C 206.628906 184.773438 206.75 184.855469 206.867188 184.933594 C 209.964844 186.964844 212.878906 189.269531 215.523438 191.863281 C 218.3125 194.648438 220.753906 197.773438 222.90625 201.082031 C 225.34375 204.910156 227.308594 209.070312 228.597656 213.449219 C 229.9375 217.816406 230.554688 222.402344 230.59375 226.984375 C 230.554688 231.566406 229.9375 236.152344 228.597656 240.519531 Z M 231.734375 226.949219 L 231.734375 226.945312 C 231.691406 222.265625 231.0625 217.582031 229.699219 213.117188 C 228.390625 208.640625 226.378906 204.386719 223.875 200.484375 L 222.671875 198.671875 C 222.671875 198.671875 222.324219 198.1875 221.804688 197.457031 C 221.300781 196.710938 220.53125 195.792969 219.796875 194.851562 C 219.007812 193.953125 218.246094 193.027344 217.609375 192.398438 C 216.988281 191.75 216.574219 191.320312 216.574219 191.320312 C 216.574219 191.320312 216.472656 191.214844 216.28125 191.03125 C 216.09375 190.851562 215.828125 190.589844 215.503906 190.28125 C 214.875 189.640625 213.964844 188.867188 213.066406 188.074219 C 212.609375 187.695312 212.136719 187.328125 211.699219 186.976562 C 211.480469 186.800781 211.269531 186.632812 211.066406 186.472656 C 210.859375 186.324219 210.660156 186.183594 210.480469 186.050781 C 209.753906 185.527344 209.269531 185.175781 209.269531 185.175781 C 209.269531 185.175781 209.164062 185.089844 208.992188 184.980469 C 208.824219 184.867188 208.597656 184.714844 208.371094 184.566406 C 207.921875 184.261719 207.46875 183.960938 207.46875 183.960938 C 207.351562 183.878906 207.222656 183.796875 207.09375 183.707031 C 206.957031 183.625 206.816406 183.539062 206.667969 183.449219 C 206.375 183.273438 206.058594 183.082031 205.71875 182.878906 C 205.054688 182.460938 204.265625 182.0625 203.414062 181.609375 C 203.199219 181.5 202.984375 181.378906 202.757812 181.269531 C 202.53125 181.164062 202.296875 181.054688 202.0625 180.945312 C 201.589844 180.726562 201.097656 180.5 200.59375 180.265625 C 199.554688 179.855469 198.472656 179.371094 197.292969 178.988281 C 192.632812 177.296875 186.8125 176.25 180.976562 176.226562 C 175.140625 176.25 169.324219 177.296875 164.660156 178.992188 C 163.480469 179.371094 162.398438 179.855469 161.363281 180.265625 C 160.855469 180.5 160.363281 180.726562 159.890625 180.945312 C 159.65625 181.054688 159.421875 181.164062 159.195312 181.269531 C 158.96875 181.378906 158.753906 181.5 158.539062 181.609375 C 157.6875 182.0625 156.898438 182.460938 156.234375 182.878906 C 155.898438 183.082031 155.582031 183.273438 155.285156 183.449219 C 155.140625 183.539062 154.996094 183.625 154.863281 183.707031 C 154.730469 183.796875 154.605469 183.878906 154.484375 183.960938 C 154.484375 183.960938 154.03125 184.261719 153.582031 184.566406 C 153.355469 184.714844 153.132812 184.867188 152.960938 184.980469 C 152.792969 185.089844 152.6875 185.175781 152.6875 185.175781 C 152.6875 185.175781 152.203125 185.527344 151.472656 186.050781 C 151.292969 186.183594 151.09375 186.324219 150.886719 186.472656 C 150.6875 186.632812 150.476562 186.800781 150.253906 186.976562 C 149.820312 187.328125 149.347656 187.695312 148.886719 188.074219 C 147.992188 188.867188 147.078125 189.640625 146.449219 190.28125 C 146.128906 190.589844 145.859375 190.851562 145.671875 191.03125 C 145.484375 191.214844 145.378906 191.320312 145.378906 191.320312 C 145.378906 191.320312 144.964844 191.75 144.34375 192.398438 C 143.707031 193.027344 142.949219 193.953125 142.15625 194.851562 C 141.421875 195.792969 140.652344 196.710938 140.152344 197.457031 C 139.628906 198.1875 139.28125 198.671875 139.28125 198.671875 L 138.078125 200.484375 C 135.574219 204.386719 133.566406 208.640625 132.253906 213.117188 C 130.890625 217.582031 130.261719 222.265625 130.21875 226.945312 L 130.21875 227.023438 C 130.261719 231.703125 130.890625 236.386719 132.253906 240.851562 C 133.566406 245.332031 135.574219 249.582031 138.078125 253.488281 L 139.28125 255.296875 C 139.28125 255.296875 139.628906 255.78125 140.152344 256.511719 C 140.652344 257.257812 141.421875 258.175781 142.15625 259.117188 C 142.949219 260.015625 143.707031 260.941406 144.34375 261.570312 C 144.964844 262.21875 145.378906 262.648438 145.378906 262.648438 C 145.378906 262.648438 145.484375 262.757812 145.671875 262.9375 C 145.859375 263.117188 146.128906 263.378906 146.449219 263.691406 C 147.078125 264.332031 147.992188 265.101562 148.886719 265.894531 C 149.347656 266.273438 149.820312 266.640625 150.253906 266.992188 C 150.476562 267.167969 150.6875 267.335938 150.886719 267.496094 C 151.09375 267.644531 151.292969 267.789062 151.472656 267.917969 C 152.203125 268.441406 152.6875 268.792969 152.6875 268.792969 C 152.6875 268.792969 152.792969 268.878906 152.960938 268.988281 C 153.132812 269.101562 153.355469 269.253906 153.582031 269.402344 C 154.03125 269.707031 154.484375 270.007812 154.484375 270.007812 C 154.605469 270.089844 154.730469 270.175781 154.863281 270.261719 C 154.996094 270.34375 155.140625 270.429688 155.285156 270.519531 C 155.582031 270.695312 155.898438 270.886719 156.234375 271.089844 C 156.898438 271.507812 157.6875 271.90625 158.539062 272.359375 C 158.753906 272.46875 158.96875 272.589844 159.195312 272.699219 C 159.421875 272.804688 159.65625 272.914062 159.890625 273.023438 C 160.363281 273.242188 160.855469 273.46875 161.363281 273.707031 C 162.398438 274.113281 163.480469 274.597656 164.664062 274.980469 C 169.324219 276.671875 175.140625 277.71875 180.976562 277.742188 C 186.8125 277.71875 192.632812 276.671875 197.292969 274.980469 C 198.472656 274.597656 199.554688 274.113281 200.59375 273.703125 C 201.097656 273.46875 201.589844 273.242188 202.0625 273.023438 C 202.300781 272.914062 202.53125 272.804688 202.757812 272.699219 C 202.984375 272.589844 203.199219 272.46875 203.414062 272.359375 C 204.265625 271.90625 205.054688 271.507812 205.722656 271.089844 C 206.058594 270.886719 206.375 270.695312 206.667969 270.519531 C 206.816406 270.429688 206.957031 270.34375 207.09375 270.261719 C 207.222656 270.171875 207.351562 270.089844 207.46875 270.007812 C 207.46875 270.007812 207.921875 269.707031 208.371094 269.402344 C 208.597656 269.253906 208.824219 269.101562 208.992188 268.988281 C 209.164062 268.878906 209.269531 268.792969 209.269531 268.792969 C 209.269531 268.792969 209.753906 268.441406 210.480469 267.917969 C 210.660156 267.789062 210.859375 267.644531 211.066406 267.496094 C 211.269531 267.335938 211.480469 267.167969 211.699219 266.992188 C 212.136719 266.640625 212.609375 266.273438 213.066406 265.894531 C 213.964844 265.101562 214.875 264.332031 215.503906 263.691406 C 215.828125 263.378906 216.09375 263.117188 216.28125 262.9375 C 216.472656 262.757812 216.574219 262.648438 216.574219 262.648438 C 216.574219 262.648438 216.988281 262.21875 217.609375 261.570312 C 218.246094 260.941406 219.007812 260.015625 219.796875 259.117188 C 220.53125 258.175781 221.300781 257.257812 221.804688 256.511719 C 222.324219 255.78125 222.671875 255.296875 222.671875 255.296875 L 223.875 253.488281 C 226.378906 249.582031 228.390625 245.328125 229.699219 240.851562 C 231.0625 236.386719 231.691406 231.703125 231.734375 227.023438 L 231.734375 226.949219 " fill-opacity="1" fill-rule="nonzero"/></g><g clip-path="url(#73feb14251)"><path fill="#0e284b" d="M 223.699219 239.125 C 222.542969 243.058594 220.78125 246.785156 218.59375 250.222656 C 216.785156 253.015625 214.734375 255.644531 212.425781 258.035156 C 212.125 258.359375 211.792969 258.652344 211.476562 258.960938 C 211.152344 259.261719 210.839844 259.574219 210.511719 259.871094 L 209.511719 260.742188 L 209.011719 261.175781 L 208.492188 261.589844 L 207.457031 262.417969 C 207.105469 262.683594 206.742188 262.9375 206.386719 263.199219 C 205.683594 263.738281 204.9375 264.210938 204.207031 264.710938 C 204.101562 264.78125 203.988281 264.855469 203.875 264.933594 C 203.753906 265.003906 203.628906 265.078125 203.5 265.15625 C 203.242188 265.3125 202.964844 265.476562 202.667969 265.652344 C 202.085938 266.019531 201.390625 266.367188 200.644531 266.765625 C 200.457031 266.859375 200.269531 266.964844 200.070312 267.0625 C 199.871094 267.15625 199.667969 267.25 199.460938 267.34375 C 199.042969 267.539062 198.613281 267.734375 198.171875 267.941406 C 197.261719 268.296875 196.3125 268.722656 195.277344 269.054688 C 191.191406 270.535156 186.09375 271.453125 180.976562 271.472656 C 175.859375 271.453125 170.761719 270.535156 166.675781 269.054688 C 165.640625 268.722656 164.691406 268.296875 163.78125 267.941406 C 163.339844 267.734375 162.910156 267.539062 162.496094 267.34375 C 162.285156 267.25 162.082031 267.15625 161.882812 267.0625 C 161.683594 266.96875 161.496094 266.859375 161.308594 266.765625 C 160.5625 266.367188 159.871094 266.019531 159.285156 265.652344 C 158.988281 265.476562 158.710938 265.3125 158.453125 265.15625 C 158.324219 265.078125 158.199219 265.003906 158.082031 264.933594 C 157.964844 264.855469 157.855469 264.78125 157.75 264.710938 C 154.96875 262.886719 152.359375 260.820312 149.984375 258.496094 C 147.480469 255.992188 145.292969 253.191406 143.363281 250.222656 C 141.171875 246.789062 139.410156 243.058594 138.257812 239.125 C 137.054688 235.207031 136.5 231.097656 136.460938 226.984375 C 136.5 222.871094 137.054688 218.761719 138.257812 214.84375 C 139.410156 210.910156 141.171875 207.183594 143.363281 203.746094 C 145.167969 200.953125 147.222656 198.324219 149.527344 195.933594 C 149.828125 195.609375 150.160156 195.316406 150.476562 195.007812 C 150.800781 194.707031 151.113281 194.394531 151.441406 194.097656 L 152.441406 193.226562 L 152.941406 192.792969 L 153.460938 192.378906 L 154.496094 191.550781 C 154.847656 191.285156 155.210938 191.03125 155.566406 190.769531 C 156.269531 190.230469 157.015625 189.757812 157.75 189.257812 C 157.855469 189.1875 157.964844 189.113281 158.082031 189.035156 C 158.199219 188.964844 158.324219 188.890625 158.453125 188.8125 C 158.710938 188.65625 158.988281 188.492188 159.285156 188.316406 C 159.871094 187.949219 160.5625 187.601562 161.308594 187.203125 C 161.496094 187.109375 161.683594 187.003906 161.882812 186.90625 C 162.082031 186.8125 162.285156 186.71875 162.492188 186.625 C 162.910156 186.429688 163.339844 186.234375 163.78125 186.027344 C 164.691406 185.671875 165.640625 185.246094 166.675781 184.914062 C 170.761719 183.433594 175.859375 182.515625 180.976562 182.496094 C 186.09375 182.515625 191.191406 183.433594 195.277344 184.914062 C 196.3125 185.246094 197.261719 185.671875 198.171875 186.027344 C 198.613281 186.234375 199.042969 186.429688 199.460938 186.625 C 199.667969 186.71875 199.871094 186.8125 200.070312 186.90625 C 200.269531 187 200.457031 187.109375 200.644531 187.203125 C 201.390625 187.601562 202.085938 187.949219 202.667969 188.316406 C 202.964844 188.492188 203.242188 188.65625 203.5 188.8125 C 203.628906 188.890625 203.753906 188.964844 203.875 189.035156 C 203.988281 189.113281 204.101562 189.1875 204.207031 189.257812 C 206.984375 191.082031 209.597656 193.148438 211.96875 195.472656 C 214.472656 197.976562 216.660156 200.777344 218.59375 203.746094 C 220.78125 207.179688 222.542969 210.910156 223.699219 214.84375 C 224.898438 218.761719 225.457031 222.871094 225.492188 226.984375 C 225.457031 231.097656 224.898438 235.207031 223.699219 239.125 Z M 226.515625 226.953125 L 226.515625 226.949219 C 226.476562 222.75 225.910156 218.550781 224.6875 214.542969 C 223.511719 210.527344 221.710938 206.710938 219.464844 203.207031 L 218.382812 201.585938 C 218.382812 201.585938 218.070312 201.148438 217.605469 200.492188 C 217.152344 199.824219 216.464844 199.003906 215.804688 198.15625 C 215.09375 197.351562 214.414062 196.523438 213.839844 195.957031 C 213.285156 195.375 212.914062 194.988281 212.914062 194.988281 C 212.914062 194.988281 212.820312 194.890625 212.652344 194.730469 C 212.484375 194.566406 212.242188 194.332031 211.953125 194.054688 C 211.390625 193.480469 210.570312 192.789062 209.765625 192.078125 C 209.355469 191.734375 208.929688 191.40625 208.539062 191.089844 C 208.34375 190.933594 208.152344 190.785156 207.972656 190.640625 C 207.785156 190.503906 207.609375 190.378906 207.445312 190.261719 C 206.792969 189.789062 206.359375 189.476562 206.359375 189.476562 C 206.359375 189.476562 206.261719 189.398438 206.109375 189.300781 C 205.957031 189.199219 205.757812 189.0625 205.554688 188.929688 C 205.148438 188.65625 204.746094 188.386719 204.746094 188.386719 C 204.636719 188.3125 204.523438 188.238281 204.40625 188.15625 C 204.285156 188.082031 204.15625 188.007812 204.027344 187.925781 C 203.761719 187.769531 203.476562 187.597656 203.175781 187.417969 C 202.578125 187.039062 201.871094 186.683594 201.105469 186.277344 C 200.914062 186.175781 200.722656 186.070312 200.519531 185.972656 C 200.3125 185.875 200.105469 185.777344 199.894531 185.679688 C 199.46875 185.484375 199.027344 185.28125 198.574219 185.070312 C 197.644531 184.703125 196.671875 184.265625 195.613281 183.925781 C 191.433594 182.40625 186.210938 181.464844 180.976562 181.445312 C 175.742188 181.464844 170.519531 182.40625 166.339844 183.925781 C 165.28125 184.265625 164.308594 184.703125 163.378906 185.070312 C 162.925781 185.28125 162.484375 185.484375 162.058594 185.679688 C 161.847656 185.78125 161.640625 185.875 161.433594 185.972656 C 161.230469 186.070312 161.039062 186.175781 160.847656 186.277344 C 160.082031 186.683594 159.375 187.039062 158.777344 187.417969 C 158.476562 187.597656 158.191406 187.769531 157.929688 187.925781 C 157.796875 188.007812 157.667969 188.082031 157.546875 188.15625 C 157.429688 188.238281 157.316406 188.3125 157.207031 188.386719 C 157.207031 188.386719 156.804688 188.65625 156.398438 188.929688 C 156.195312 189.0625 155.996094 189.199219 155.84375 189.300781 C 155.691406 189.398438 155.59375 189.476562 155.59375 189.476562 C 155.59375 189.476562 155.160156 189.789062 154.507812 190.261719 C 154.34375 190.378906 154.167969 190.503906 153.980469 190.640625 C 153.800781 190.785156 153.613281 190.933594 153.414062 191.089844 C 153.023438 191.40625 152.597656 191.734375 152.1875 192.078125 C 151.382812 192.789062 150.566406 193.480469 150 194.054688 C 149.710938 194.332031 149.472656 194.566406 149.300781 194.730469 C 149.132812 194.890625 149.039062 194.988281 149.039062 194.988281 C 149.039062 194.988281 148.667969 195.375 148.113281 195.957031 C 147.539062 196.523438 146.859375 197.351562 146.148438 198.15625 C 145.492188 199.003906 144.800781 199.824219 144.351562 200.492188 C 143.882812 201.148438 143.570312 201.585938 143.570312 201.585938 L 142.488281 203.207031 C 140.242188 206.710938 138.441406 210.527344 137.265625 214.542969 C 136.042969 218.550781 135.476562 222.753906 135.441406 226.949219 L 135.4375 226.953125 L 135.4375 227.015625 L 135.441406 227.019531 C 135.476562 231.21875 136.042969 235.417969 137.265625 239.425781 C 138.441406 243.441406 140.242188 247.257812 142.488281 250.761719 L 143.570312 252.382812 C 143.570312 252.382812 143.882812 252.820312 144.351562 253.476562 C 144.800781 254.144531 145.492188 254.964844 146.148438 255.8125 C 146.859375 256.617188 147.539062 257.449219 148.113281 258.011719 C 148.667969 258.59375 149.039062 258.980469 149.039062 258.980469 C 149.039062 258.980469 149.132812 259.078125 149.300781 259.238281 C 149.472656 259.402344 149.710938 259.636719 150 259.914062 C 150.566406 260.488281 151.382812 261.179688 152.1875 261.890625 C 152.597656 262.234375 153.023438 262.5625 153.414062 262.878906 C 153.613281 263.035156 153.800781 263.183594 153.980469 263.328125 C 154.167969 263.464844 154.34375 263.589844 154.507812 263.707031 C 155.160156 264.179688 155.59375 264.492188 155.59375 264.492188 C 155.59375 264.492188 155.691406 264.570312 155.84375 264.667969 C 155.996094 264.769531 156.199219 264.90625 156.398438 265.039062 C 156.804688 265.3125 157.207031 265.582031 157.207031 265.582031 C 157.316406 265.65625 157.429688 265.730469 157.546875 265.8125 C 157.667969 265.886719 157.796875 265.960938 157.929688 266.042969 C 158.191406 266.199219 158.476562 266.371094 158.777344 266.550781 C 159.375 266.929688 160.082031 267.285156 160.847656 267.691406 C 161.039062 267.792969 161.234375 267.898438 161.4375 267.996094 C 161.640625 268.09375 161.847656 268.191406 162.058594 268.289062 C 162.484375 268.484375 162.925781 268.6875 163.378906 268.898438 C 164.308594 269.265625 165.28125 269.703125 166.339844 270.042969 C 170.519531 271.5625 175.742188 272.5 180.976562 272.523438 C 186.210938 272.5 191.433594 271.5625 195.613281 270.042969 C 196.671875 269.703125 197.644531 269.265625 198.574219 268.898438 C 199.027344 268.6875 199.46875 268.484375 199.894531 268.289062 C 200.105469 268.1875 200.3125 268.09375 200.519531 267.996094 C 200.722656 267.898438 200.914062 267.792969 201.105469 267.691406 C 201.871094 267.285156 202.578125 266.929688 203.175781 266.550781 C 203.476562 266.371094 203.761719 266.199219 204.027344 266.042969 C 204.15625 265.960938 204.285156 265.886719 204.40625 265.8125 C 204.523438 265.730469 204.636719 265.65625 204.746094 265.582031 C 204.746094 265.582031 205.148438 265.3125 205.554688 265.039062 C 205.757812 264.90625 205.957031 264.769531 206.109375 264.667969 C 206.261719 264.570312 206.359375 264.492188 206.359375 264.492188 C 206.359375 264.492188 206.792969 264.179688 207.445312 263.707031 C 207.609375 263.589844 207.785156 263.464844 207.972656 263.328125 C 208.152344 263.183594 208.34375 263.035156 208.539062 262.878906 C 208.929688 262.5625 209.355469 262.234375 209.765625 261.890625 C 210.570312 261.179688 211.390625 260.488281 211.953125 259.914062 C 212.242188 259.636719 212.484375 259.402344 212.652344 259.238281 C 212.820312 259.078125 212.914062 258.980469 212.914062 258.980469 C 212.914062 258.980469 213.285156 258.59375 213.839844 258.011719 C 214.414062 257.449219 215.09375 256.617188 215.804688 255.8125 C 216.464844 254.964844 217.152344 254.144531 217.605469 253.476562 C 218.070312 252.820312 218.382812 252.382812 218.382812 252.382812 L 219.464844 250.761719 C 221.710938 247.257812 223.511719 243.441406 224.6875 239.425781 C 225.910156 235.417969 226.476562 231.214844 226.515625 227.019531 L 226.515625 226.953125 " fill-opacity="1" fill-rule="nonzero"/></g><path fill="#0e284b" d="M 172.8125 211.59375 L 176.484375 215.261719 L 166.195312 225.550781 L 162.523438 221.882812 L 172.8125 211.59375 " fill-opacity="1" fill-rule="nonzero"/><g clip-path="url(#821f543d8f)"><path fill="#0e284b" d="M 170.542969 211.765625 L 165.648438 216.660156 L 161.542969 212.554688 L 154.636719 219.457031 L 152.628906 217.445312 L 155.074219 206.785156 L 160.320312 201.542969 L 170.542969 211.765625 " fill-opacity="1" fill-rule="nonzero"/></g><path fill="#0e284b" d="M 176.550781 216.375 L 177.992188 217.820312 L 175.320312 220.488281 L 173.878906 219.046875 L 176.550781 216.375 " fill-opacity="1" fill-rule="nonzero"/><path fill="#0e284b" d="M 162.132812 228.433594 L 165.015625 225.550781 L 162.261719 222.796875 L 159.378906 225.683594 L 162.132812 228.433594 " fill-opacity="1" fill-rule="nonzero"/><path fill="#0e284b" d="M 161.3125 220.996094 L 165.015625 217.292969 L 162.164062 214.441406 L 156.59375 220.011719 L 158.019531 221.4375 L 161.3125 220.996094 " fill-opacity="1" fill-rule="nonzero"/><path fill="#0e284b" d="M 180.136719 228.433594 L 172.222656 220.703125 L 167.660156 225.265625 L 175.269531 232.878906 L 180.136719 228.433594 " fill-opacity="1" fill-rule="nonzero"/><g clip-path="url(#4198aac08b)"><path fill="#0e284b" d="M 185.761719 234.238281 L 181.066406 238.675781 L 193.214844 250.824219 C 194.664062 252.273438 196.859375 252.425781 198.121094 251.164062 C 199.378906 249.902344 199.230469 247.707031 197.78125 246.261719 L 185.761719 234.238281 " fill-opacity="1" fill-rule="nonzero"/></g><g clip-path="url(#694cc15352)"><path fill="#0e284b" d="M 206.832031 220.695312 L 209.324219 214.984375 L 207.515625 213.171875 L 203.542969 217.75 L 198.769531 218.902344 L 194.644531 214.777344 L 195.796875 210.003906 L 200.675781 206.332031 L 198.863281 204.523438 L 193.152344 207.015625 L 189.164062 211.007812 L 189.375 221.253906 L 189.457031 221.332031 L 163.117188 246.285156 C 161.890625 247.511719 161.890625 249.503906 163.117188 250.730469 C 164.34375 251.957031 166.335938 251.957031 167.5625 250.730469 L 192.976562 224.476562 L 202.839844 224.683594 L 206.832031 220.695312 " fill-opacity="1" fill-rule="nonzero"/></g><g fill="#0e284b" fill-opacity="1"><g transform="translate(155.93594, 194.781085)"><g><path d="M -1.265625 -4.828125 L 1.375 -0.921875 L 0.96875 -0.65625 L -1.4375 -4.21875 L -2.359375 -3.59375 L -2.59375 -3.9375 Z M -1.265625 -4.828125 "/></g></g></g><g fill="#0e284b" fill-opacity="1"><g transform="translate(158.689005, 192.928747)"><g><path d="M 1.84375 -0.9375 C 1.53125 -0.769531 1.207031 -0.660156 0.875 -0.609375 C 0.539062 -0.566406 0.25 -0.585938 0 -0.671875 L 0 -1.09375 C 0.226562 -1.019531 0.488281 -1.003906 0.78125 -1.046875 C 1.082031 -1.097656 1.367188 -1.191406 1.640625 -1.328125 C 2.003906 -1.523438 2.242188 -1.738281 2.359375 -1.96875 C 2.472656 -2.207031 2.472656 -2.441406 2.359375 -2.671875 C 2.265625 -2.828125 2.140625 -2.929688 1.984375 -2.984375 C 1.835938 -3.035156 1.675781 -3.046875 1.5 -3.015625 C 1.320312 -2.984375 1.082031 -2.925781 0.78125 -2.84375 C 0.425781 -2.75 0.140625 -2.691406 -0.078125 -2.671875 C -0.304688 -2.648438 -0.523438 -2.675781 -0.734375 -2.75 C -0.941406 -2.832031 -1.117188 -3 -1.265625 -3.25 C -1.378906 -3.457031 -1.425781 -3.679688 -1.40625 -3.921875 C -1.394531 -4.160156 -1.300781 -4.390625 -1.125 -4.609375 C -0.945312 -4.835938 -0.691406 -5.039062 -0.359375 -5.21875 C -0.117188 -5.351562 0.128906 -5.453125 0.390625 -5.515625 C 0.648438 -5.578125 0.894531 -5.585938 1.125 -5.546875 L 1.15625 -5.125 C 0.925781 -5.144531 0.695312 -5.128906 0.46875 -5.078125 C 0.238281 -5.023438 0.0234375 -4.945312 -0.171875 -4.84375 C -0.535156 -4.644531 -0.769531 -4.425781 -0.875 -4.1875 C -0.976562 -3.945312 -0.96875 -3.71875 -0.84375 -3.5 C -0.757812 -3.332031 -0.640625 -3.226562 -0.484375 -3.1875 C -0.328125 -3.144531 -0.160156 -3.132812 0.015625 -3.15625 C 0.191406 -3.175781 0.4375 -3.226562 0.75 -3.3125 C 1.09375 -3.40625 1.375 -3.460938 1.59375 -3.484375 C 1.820312 -3.515625 2.039062 -3.492188 2.25 -3.421875 C 2.457031 -3.347656 2.628906 -3.179688 2.765625 -2.921875 C 2.878906 -2.710938 2.925781 -2.488281 2.90625 -2.25 C 2.894531 -2.019531 2.796875 -1.789062 2.609375 -1.5625 C 2.429688 -1.332031 2.175781 -1.125 1.84375 -0.9375 Z M 1.84375 -0.9375 "/></g></g></g><g fill="#0e284b" fill-opacity="1"><g transform="translate(163.106234, 190.595584)"><g><path d="M -0.046875 -4.625 L -1.578125 -4 L -1.75 -4.390625 L 1.78125 -5.8125 L 1.953125 -5.421875 L 0.421875 -4.8125 L 2.03125 -0.828125 L 1.5625 -0.640625 Z M -0.046875 -4.625 "/></g></g></g><g fill="#0e284b" fill-opacity="1"><g transform="translate(167.560367, 188.877938)"><g/></g></g><g fill="#0e284b" fill-opacity="1"><g transform="translate(170.084184, 188.06424)"><g><path d="M 2.78125 -0.53125 C 2.320312 -0.4375 1.890625 -0.453125 1.484375 -0.578125 C 1.078125 -0.703125 0.726562 -0.921875 0.4375 -1.234375 C 0.144531 -1.554688 -0.046875 -1.9375 -0.140625 -2.375 C -0.222656 -2.820312 -0.195312 -3.25 -0.0625 -3.65625 C 0.0703125 -4.0625 0.300781 -4.40625 0.625 -4.6875 C 0.945312 -4.96875 1.335938 -5.15625 1.796875 -5.25 C 2.148438 -5.320312 2.484375 -5.328125 2.796875 -5.265625 C 3.109375 -5.210938 3.390625 -5.097656 3.640625 -4.921875 L 3.375 -4.546875 C 2.945312 -4.828125 2.457031 -4.910156 1.90625 -4.796875 C 1.539062 -4.722656 1.222656 -4.570312 0.953125 -4.34375 C 0.691406 -4.125 0.503906 -3.847656 0.390625 -3.515625 C 0.285156 -3.191406 0.269531 -2.847656 0.34375 -2.484375 C 0.425781 -2.128906 0.578125 -1.820312 0.796875 -1.5625 C 1.023438 -1.3125 1.304688 -1.128906 1.640625 -1.015625 C 1.984375 -0.910156 2.335938 -0.894531 2.703125 -0.96875 C 3.253906 -1.082031 3.664062 -1.363281 3.9375 -1.8125 L 4.328125 -1.5625 C 4.171875 -1.300781 3.957031 -1.078125 3.6875 -0.890625 C 3.425781 -0.710938 3.125 -0.59375 2.78125 -0.53125 Z M 2.78125 -0.53125 "/></g></g></g><g fill="#0e284b" fill-opacity="1"><g transform="translate(175.636664, 186.970555)"><g><path d="M 3.625 -1.546875 L 1 -1.34375 L 0.53125 -0.046875 L 0.015625 0 L 1.828125 -4.859375 L 2.328125 -4.90625 L 4.8125 -0.359375 L 4.28125 -0.3125 Z M 3.40625 -1.9375 L 2.109375 -4.359375 L 1.15625 -1.765625 Z M 3.40625 -1.9375 "/></g></g></g><g fill="#0e284b" fill-opacity="1"><g transform="translate(181.290553, 186.626453)"><g><path d="M 0.984375 -4.6875 L 1.484375 -4.65625 L 1.28125 -0.375 L 3.9375 -0.25 L 3.921875 0.1875 L 0.765625 0.03125 Z M 0.984375 -4.6875 "/></g></g></g><g fill="#0e284b" fill-opacity="1"><g transform="translate(186.105451, 186.894971)"><g><path d="M 1.484375 -4.53125 L 1.984375 -4.453125 L 1.3125 -0.234375 L 3.9375 0.171875 L 3.875 0.609375 L 0.75 0.125 Z M 1.484375 -4.53125 "/></g></g></g><g fill="#0e284b" fill-opacity="1"><g transform="translate(190.90392, 187.740935)"><g/></g></g><g fill="#0e284b" fill-opacity="1"><g transform="translate(193.485112, 188.349312)"><g><path d="M 3.96875 -3.609375 C 4.53125 -3.410156 4.925781 -3.117188 5.15625 -2.734375 C 5.382812 -2.347656 5.414062 -1.921875 5.25 -1.453125 C 5.082031 -0.960938 4.785156 -0.640625 4.359375 -0.484375 C 3.941406 -0.335938 3.453125 -0.363281 2.890625 -0.5625 L 1.6875 -0.984375 L 1.1875 0.421875 L 0.71875 0.25 L 2.296875 -4.203125 Z M 3.03125 -0.984375 C 3.457031 -0.828125 3.820312 -0.800781 4.125 -0.90625 C 4.4375 -1.019531 4.65625 -1.253906 4.78125 -1.609375 C 4.90625 -1.960938 4.882812 -2.273438 4.71875 -2.546875 C 4.550781 -2.828125 4.253906 -3.046875 3.828125 -3.203125 L 2.625 -3.625 L 1.828125 -1.40625 Z M 3.03125 -0.984375 "/></g></g></g><g fill="#0e284b" fill-opacity="1"><g transform="translate(198.78589, 190.218723)"><g><path d="M 7.21875 -1.515625 L 5.015625 2.65625 L 4.59375 2.4375 L 6.359375 -0.90625 L 3.234375 1.03125 L 3.03125 0.921875 L 2.875 -2.75 L 1.109375 0.578125 L 0.671875 0.359375 L 2.875 -3.8125 L 3.25 -3.609375 L 3.421875 0.4375 L 6.859375 -1.703125 Z M 7.21875 -1.515625 "/></g></g></g><g fill="#0e284b" fill-opacity="1"><g transform="translate(205.133803, 193.780309)"><g/></g></g><g fill="#000000" fill-opacity="1"><g transform="translate(177.733537, 269.697971)"><g><path d="M 15.109375 2.21875 C 15.160156 2.21875 15.210938 2.21875 15.265625 2.21875 L 15.265625 2.359375 C 15.015625 2.398438 14.726562 2.421875 14.40625 2.421875 C 14.09375 2.421875 13.703125 2.347656 13.234375 2.203125 C 12.773438 2.066406 12.359375 1.8125 11.984375 1.4375 C 11.222656 0.664062 10.757812 -0.328125 10.59375 -1.546875 L 9.75 -7.65625 L 6.890625 -1.203125 C 6.640625 -0.648438 6.484375 -0.1875 6.421875 0.1875 L 6.296875 0.1875 L 2.734375 -7.546875 L 2.125 -0.71875 C 2.101562 -0.5625 2.148438 -0.421875 2.265625 -0.296875 C 2.378906 -0.179688 2.507812 -0.125 2.65625 -0.125 L 2.875 -0.125 L 2.875 0 L 0.203125 0 L 0.203125 -0.140625 L 0.421875 -0.140625 C 0.671875 -0.140625 0.890625 -0.210938 1.078125 -0.359375 C 1.265625 -0.515625 1.378906 -0.71875 1.421875 -0.96875 L 2.296875 -8.453125 C 1.484375 -10.046875 0.515625 -10.84375 -0.609375 -10.84375 C -0.703125 -10.84375 -0.804688 -10.835938 -0.921875 -10.828125 L -0.921875 -10.953125 C -0.671875 -11.023438 -0.46875 -11.0625 -0.3125 -11.0625 C -0.15625 -11.0625 0.0078125 -11.050781 0.1875 -11.03125 C 0.375 -11.019531 0.585938 -10.976562 0.828125 -10.90625 C 1.078125 -10.832031 1.3125 -10.722656 1.53125 -10.578125 C 1.757812 -10.441406 1.953125 -10.296875 2.109375 -10.140625 C 2.273438 -9.992188 2.429688 -9.828125 2.578125 -9.640625 C 2.828125 -9.304688 3.023438 -8.988281 3.171875 -8.6875 L 6.484375 -1.53125 L 10.171875 -9.8125 L 10.296875 -9.8125 L 11.578125 -1.671875 C 11.765625 -0.390625 12.175781 0.578125 12.8125 1.234375 C 13.457031 1.890625 14.222656 2.21875 15.109375 2.21875 Z M 15.109375 2.21875 "/></g></g></g><g fill="#000000" fill-opacity="1"><g transform="translate(171.915339, 268.045249)"><g><path d="M 6.15625 -12.5 C 7.164062 -12.5 8.007812 -12.257812 8.6875 -11.78125 C 9.59375 -11.125 10.046875 -10.101562 10.046875 -8.71875 C 10.046875 -7.71875 9.765625 -6.863281 9.203125 -6.15625 C 8.597656 -5.394531 7.753906 -5.015625 6.671875 -5.015625 C 6.097656 -5.015625 5.578125 -5.148438 5.109375 -5.421875 C 4.648438 -5.691406 4.378906 -6.160156 4.296875 -6.828125 L 4.453125 -6.875 C 4.578125 -6.375 4.875 -6.023438 5.34375 -5.828125 C 5.65625 -5.691406 5.9375 -5.625 6.1875 -5.625 C 7.132812 -5.625 7.828125 -6 8.265625 -6.75 C 8.578125 -7.289062 8.734375 -7.941406 8.734375 -8.703125 C 8.734375 -9.910156 8.394531 -10.78125 7.71875 -11.3125 C 7.207031 -11.738281 6.554688 -11.953125 5.765625 -11.953125 C 5.578125 -11.953125 5.414062 -11.941406 5.28125 -11.921875 C 5.144531 -11.898438 4.5625 -11.804688 3.53125 -11.640625 L 3.53125 -1.28125 C 3.539062 -0.957031 3.65625 -0.691406 3.875 -0.484375 C 4.09375 -0.273438 4.347656 -0.171875 4.640625 -0.171875 L 4.875 -0.171875 L 4.875 0 L 1.046875 0 L 1.046875 -0.171875 L 1.28125 -0.171875 C 1.570312 -0.171875 1.828125 -0.273438 2.046875 -0.484375 C 2.265625 -0.691406 2.378906 -0.957031 2.390625 -1.28125 L 2.390625 -10.71875 C 2.390625 -11.03125 2.300781 -11.269531 2.125 -11.4375 C 1.957031 -11.601562 1.734375 -11.6875 1.453125 -11.6875 C 1.390625 -11.6875 1.332031 -11.679688 1.28125 -11.671875 L 1.0625 -11.65625 L 1.03125 -11.828125 C 1.632812 -11.878906 2.445312 -11.988281 3.46875 -12.15625 C 4.488281 -12.332031 5.117188 -12.429688 5.359375 -12.453125 C 5.609375 -12.484375 5.875 -12.5 6.15625 -12.5 Z M 6.15625 -12.5 "/></g></g></g><g clip-path="url(#a51596cffa)"><path fill="#000000" d="M 113.414062 318.960938 C 113.550781 318.636719 113.5 318.238281 113.269531 318 C 113.246094 317.976562 113.226562 317.945312 113.199219 317.925781 C 113.152344 317.898438 113.109375 317.859375 113.058594 317.820312 C 113.058594 317.820312 113.054688 317.8125 113.054688 317.808594 C 113.050781 317.808594 113.050781 317.808594 113.050781 317.808594 C 112.851562 317.617188 112.660156 317.308594 112.539062 317.078125 C 112.535156 316.941406 112.542969 316.789062 112.566406 316.613281 C 112.660156 315.714844 113.382812 314.78125 114.734375 313.796875 C 115.5 313.222656 116.457031 312.679688 117.621094 312.160156 C 118.824219 311.636719 120.28125 311.179688 121.988281 310.800781 C 125.683594 310.007812 129.253906 309.8125 132.695312 310.21875 C 136.089844 310.628906 139.574219 311.007812 143.15625 311.351562 C 145.117188 311.578125 147.097656 311.703125 149.089844 311.730469 C 151.082031 311.757812 153.179688 311.625 155.378906 311.335938 C 160.160156 310.714844 163.707031 309.589844 166.007812 307.964844 C 166.53125 307.585938 167.003906 307.253906 167.441406 306.957031 C 167.488281 306.789062 167.535156 306.625 167.582031 306.460938 C 167.558594 306.292969 167.535156 306.121094 167.511719 305.953125 C 166.972656 306.332031 166.355469 306.761719 165.636719 307.257812 C 163.277344 308.835938 159.855469 309.925781 155.355469 310.515625 C 151.53125 311.035156 147.890625 311.039062 144.441406 310.535156 C 140.945312 310.035156 137.433594 309.660156 133.914062 309.40625 C 132.007812 309.273438 130.0625 309.238281 128.078125 309.3125 C 126.101562 309.378906 124.070312 309.652344 121.984375 310.125 C 119.945312 310.59375 118.253906 311.125 116.910156 311.710938 C 115.621094 312.34375 114.597656 312.972656 113.835938 313.59375 C 112.371094 314.835938 111.667969 315.992188 111.734375 317.066406 L 111.773438 317.429688 C 111.785156 317.53125 111.796875 317.621094 111.8125 317.707031 C 111.828125 317.917969 111.828125 318.132812 111.804688 318.324219 C 111.792969 318.460938 111.800781 318.597656 111.8125 318.734375 C 111.851562 319.074219 112.203125 319.398438 112.585938 319.449219 " fill-opacity="1" fill-rule="nonzero"/></g><g fill="#000000" fill-opacity="1"><g transform="translate(166.84933, 320.497698)"><g><path d="M 0.355469 -14.332031 C -1.15625 -8.011719 -1.066406 4.941406 3.960938 4.183594 C 5.785156 3.917969 9.214844 0 11.304688 -3.917969 C 15.222656 -3.027344 19.71875 -5.921875 23.101562 -10.414062 C 23.101562 -10.636719 22.390625 -10.59375 22.210938 -10.371094 C 19.851562 -7.121094 15.089844 -3.605469 11.617188 -4.585938 C 15.132812 -12.0625 14.734375 -17.046875 11.75 -17.671875 C 6.277344 -18.207031 4.585938 -7.300781 10.550781 -4.230469 C 8.234375 0.355469 5.253906 3.203125 3.960938 3.425781 C 1.558594 3.828125 1.734375 -6.945312 3.5625 -14.644531 C 4.09375 -16.824219 0.933594 -16.824219 0.355469 -14.332031 Z M 10.859375 -4.894531 C 5.386719 -7.835938 7.476562 -17.402344 11.484375 -17.09375 C 14.332031 -16.558594 13.976562 -11.128906 10.859375 -4.894531 Z M 10.859375 -4.894531 "/></g></g></g><g fill="#000000" fill-opacity="1"><g transform="translate(188.882089, 320.497698)"><g><path d="M 6.144531 5.699219 C 10.148438 2.714844 15.800781 -7.253906 18.25 -10.460938 C 18.25 -10.683594 17.671875 -10.683594 17.492188 -10.503906 C 15.578125 -8.054688 9.167969 2.9375 5.339844 5.476562 C 0.535156 8.546875 1.601562 -0.578125 1.871094 -3.070312 C 2.226562 -6.722656 2.9375 -10.550781 3.382812 -12.375 C 17.9375 -28.710938 16.203125 -37.34375 11.707031 -37.34375 C 6.230469 -37.34375 2.179688 -26.441406 0.402344 -15.265625 C -0.3125 -10.773438 -0.625 -6.1875 -0.535156 -2.316406 C -0.488281 -0.132812 -0.488281 6.988281 3.070312 6.988281 C 3.917969 6.988281 4.941406 6.585938 6.144531 5.699219 Z M 3.515625 -13.53125 C 4.628906 -23.679688 8.277344 -36.1875 11.484375 -36.675781 C 15.265625 -36.988281 16.871094 -29.464844 3.515625 -13.53125 Z M 3.515625 -13.53125 "/></g></g></g><g clip-path="url(#8216302a2e)"><g clip-path="url(#f8ffb71224)"><g clip-path="url(#d7532d1850)"><g clip-path="url(#9e15973b12)"><path fill="#000000" d="M 261.5625 302.835938 C 261.394531 303.148438 261.417969 303.546875 261.625 303.804688 C 261.644531 303.828125 261.664062 303.863281 261.691406 303.882812 C 261.734375 303.914062 261.773438 303.957031 261.820312 304.003906 C 261.820312 304.003906 261.824219 304.007812 261.824219 304.011719 C 261.828125 304.011719 261.828125 304.011719 261.828125 304.011719 C 262.011719 304.222656 262.179688 304.542969 262.28125 304.78125 C 262.273438 304.917969 262.253906 305.070312 262.214844 305.242188 C 262.050781 306.132812 261.253906 307.003906 259.824219 307.875 C 259.019531 308.382812 258.015625 308.851562 256.816406 309.273438 C 255.574219 309.699219 254.085938 310.035156 252.355469 310.277344 C 248.605469 310.769531 245.03125 310.671875 241.632812 309.988281 C 238.285156 309.304688 234.84375 308.644531 231.300781 308.015625 C 229.363281 307.632812 227.398438 307.34375 225.414062 307.15625 C 223.433594 306.96875 221.328125 306.929688 219.117188 307.039062 C 214.300781 307.273438 210.675781 308.105469 208.25 309.539062 C 207.699219 309.875 207.199219 310.171875 206.738281 310.429688 C 206.679688 310.59375 206.617188 310.753906 206.558594 310.914062 C 206.566406 311.085938 206.574219 311.253906 206.585938 311.425781 C 207.15625 311.089844 207.808594 310.714844 208.5625 310.277344 C 211.039062 308.894531 214.539062 308.085938 219.074219 307.859375 C 222.925781 307.652344 226.558594 307.941406 229.953125 308.726562 C 233.398438 309.507812 236.867188 310.164062 240.351562 310.699219 C 242.242188 310.984375 244.179688 311.179688 246.164062 311.265625 C 248.140625 311.359375 250.1875 311.25 252.304688 310.949219 C 254.371094 310.648438 256.101562 310.253906 257.488281 309.777344 C 258.828125 309.25 259.898438 308.710938 260.703125 308.148438 C 262.265625 307.03125 263.0625 305.9375 263.082031 304.859375 L 263.070312 304.492188 C 263.070312 304.394531 263.0625 304.300781 263.050781 304.214844 C 263.054688 304.003906 263.074219 303.785156 263.113281 303.601562 C 263.136719 303.464844 263.136719 303.324219 263.136719 303.191406 C 263.128906 302.851562 262.800781 302.496094 262.421875 302.417969 " fill-opacity="1" fill-rule="nonzero"/></g></g></g></g><g fill="#000000" fill-opacity="1"><g transform="translate(212.269443, 324.121673)"><g><path d="M 3.46875 -0.03125 C 2.945312 -0.03125 2.546875 -0.171875 2.265625 -0.453125 C 1.992188 -0.742188 1.859375 -1.164062 1.859375 -1.71875 L 1.859375 -2.34375 C 1.859375 -2.875 1.992188 -3.28125 2.265625 -3.5625 C 2.546875 -3.851562 2.945312 -4 3.46875 -4 L 3.8125 -4 C 4.363281 -4 4.773438 -3.851562 5.046875 -3.5625 C 5.328125 -3.28125 5.46875 -2.875 5.46875 -2.34375 L 5.46875 -1.71875 C 5.46875 -0.59375 4.914062 -0.03125 3.8125 -0.03125 Z M 3.46875 -0.03125 "/></g></g></g></svg>